<mxfile host="Electron" agent="Mozilla/5.0 (Windows NT 10.0; Win64; x64) AppleWebKit/537.36 (KHTML, like Gecko) draw.io/24.7.5 Chrome/126.0.6478.183 Electron/31.3.0 Safari/537.36" version="24.7.5">
  <diagram name="Page-1" id="8DqqH19APnQvMcLVQA6c">
    <mxGraphModel dx="2284" dy="836" grid="1" gridSize="10" guides="1" tooltips="1" connect="1" arrows="1" fold="1" page="1" pageScale="1" pageWidth="850" pageHeight="1100" math="0" shadow="0">
      <root>
        <mxCell id="0" />
        <mxCell id="1" parent="0" />
        <mxCell id="J9iU3h3GiEJpY3RRd1Bj-60" value="&lt;b style=&quot;forced-color-adjust: none; color: rgb(255, 255, 255); font-family: Helvetica; font-style: normal; font-variant-ligatures: normal; font-variant-caps: normal; letter-spacing: normal; orphans: 2; text-align: center; text-indent: 0px; text-transform: none; widows: 2; word-spacing: 0px; -webkit-text-stroke-width: 0px; white-space: nowrap; text-decoration-thickness: initial; text-decoration-style: initial; text-decoration-color: initial; background-color: rgb(0, 0, 0); font-size: 17px;&quot;&gt;&lt;font style=&quot;font-size: 17px;&quot;&gt;Sensor Suite&lt;/font&gt;&lt;/b&gt;&lt;div style=&quot;font-size: 17px;&quot;&gt;&lt;b style=&quot;forced-color-adjust: none; color: rgb(255, 255, 255); font-family: Helvetica; font-style: normal; font-variant-ligatures: normal; font-variant-caps: normal; letter-spacing: normal; orphans: 2; text-align: center; text-indent: 0px; text-transform: none; widows: 2; word-spacing: 0px; -webkit-text-stroke-width: 0px; white-space: nowrap; text-decoration-thickness: initial; text-decoration-style: initial; text-decoration-color: initial; background-color: rgb(0, 0, 0);&quot;&gt;&lt;br&gt;&lt;/b&gt;&lt;/div&gt;" style="text;whiteSpace=wrap;html=1;" parent="1" vertex="1">
          <mxGeometry x="448" y="323" width="190" height="40" as="geometry" />
        </mxCell>
        <mxCell id="LpF5Ccz4zrVWc6uUfBFL-41" value="" style="edgeStyle=orthogonalEdgeStyle;rounded=0;orthogonalLoop=1;jettySize=auto;html=1;" parent="1" source="LpF5Ccz4zrVWc6uUfBFL-10" target="LpF5Ccz4zrVWc6uUfBFL-11" edge="1">
          <mxGeometry relative="1" as="geometry" />
        </mxCell>
        <mxCell id="LpF5Ccz4zrVWc6uUfBFL-18" value="" style="edgeStyle=orthogonalEdgeStyle;rounded=0;orthogonalLoop=1;jettySize=auto;html=1;entryX=1;entryY=0.5;entryDx=0;entryDy=0;exitX=0.5;exitY=1;exitDx=0;exitDy=0;" parent="1" source="LpF5Ccz4zrVWc6uUfBFL-11" target="LpF5Ccz4zrVWc6uUfBFL-13" edge="1">
          <mxGeometry relative="1" as="geometry">
            <mxPoint x="668" y="320" as="targetPoint" />
          </mxGeometry>
        </mxCell>
        <mxCell id="LpF5Ccz4zrVWc6uUfBFL-11" value="&lt;b&gt;&lt;font style=&quot;font-size: 17px;&quot;&gt;Vehicle Model&lt;/font&gt;&lt;/b&gt;" style="rounded=0;whiteSpace=wrap;html=1;" parent="1" vertex="1">
          <mxGeometry x="607.24" y="173" width="120" height="60" as="geometry" />
        </mxCell>
        <mxCell id="LpF5Ccz4zrVWc6uUfBFL-13" value="" style="rounded=1;whiteSpace=wrap;html=1;" parent="1" vertex="1">
          <mxGeometry x="428" y="270" width="130" height="60" as="geometry" />
        </mxCell>
        <mxCell id="LpF5Ccz4zrVWc6uUfBFL-21" value="" style="edgeStyle=orthogonalEdgeStyle;rounded=0;orthogonalLoop=1;jettySize=auto;html=1;" parent="1" source="LpF5Ccz4zrVWc6uUfBFL-14" target="LpF5Ccz4zrVWc6uUfBFL-20" edge="1">
          <mxGeometry relative="1" as="geometry" />
        </mxCell>
        <mxCell id="LpF5Ccz4zrVWc6uUfBFL-14" value="" style="shape=image;verticalLabelPosition=bottom;labelBackgroundColor=default;verticalAlign=top;aspect=fixed;imageAspect=0;image=data:image/png,iVBORw0KGgoAAAANSUhEUgAAANkAAAGCCAYAAABtgGb2AAAAAXNSR0IArs4c6QAAAARnQU1BAACxjwv8YQUAAAAJcEhZcwAADsMAAA7DAcdvqGQAAHllSURBVHhe7d0J3H/lnD/+Y8wYM0Mp2aOsCS2WJNmFQiSUKGXN0pSxxvBraAyDZpSliIqSaFNRpELKLrtClkK2VJKZMTPm8z/Pi9f9vzru7710f+7lc3e9Ho/355xz7cv7db2vc53rnM91Rj26hoaGRcNf/OnY0NCwSGgka2hYZDSSNTQsMhrJGhoWGY1kDQ2LjEayhoZFRiNZQ8Mio5GsYaLxf//3f93//u//dvXjXm7/8z//czW35UQjWcNE4g9/+EMRRIogW9wQbaWgkaxhIsFSIRX85V/+ZSHX73//++J23etet7ve9a43Rb7lRttW1TCRmE5tEe0617lOIZnz3/zmN90Nb3jD7q/+6q/+FGJ50EjWMJEwHcyU8C/+4i8Kuahy1NkR0RCM/3KiTRcbJhI1mUwTES5uWfgwZVxugkEjWcNEIlaMBWOxInEL6UK85USbLjZMJFgv8l//9V/dVVddNWW5bnCDGxRxjmyR5UQjWcNEgtp++tOf7o4++ujuzDPP7C677LJus8026x760Id2D3vYw7otttjiTyH/aNmWE41kDROJk046qRDs3HPPLZbsyiuvLBbslre8ZbfNNtt0z3/+87s73vGOZXl/udHuyRpWFNxL1YsY4Jybey7Hn//8591HP/rR7lOf+lT3s5/9rEwbhfnP//zP7uKLL+4+85nPdKeffvrUro+Z7Ej8ZwqzUDSSNaxIDJV+SLLvfOc73S9+8YsS7r//+79LGCuJwnD/yle+MvWwernRSNawopBnXvV9VM5jcf7jP/5jikBxAwTjXu8GWQloJGuYKLBkpoVZroeQLIQjSCZs/JYTjWQNKwpIkakhooQkrJntUo7cHGP18sDZORmeLzcayRpWJEI2x5AqpKl3cUxHpDrsdP5LjUayhhWFEKQmSg1uIVkISIZYU/zlQCNZw4oDEpka1hYLkVi2oCbYdCRbSWgka1ixQLJYpJpMcyHVSiJeI1nDigJyzGVVEAFrgZUyPRyikaxhwUAKD4RDDKuCrrNKmOdWzrnVJHLOLyuJIVkt3Op7LFPJGvEXNqjPA+GSV/y5KWtdNv7KzM2D7y9/+cvdxz/+8e7ss8/ufvnLX07tJEl45+BcnCEayRoWBEpFKYGyRTmjvPYVXn755eXZ1hBR7BBI3PoacgTn0g1JotzDY8LVcC1ODdfJD6SbMim3DchHHXVUd8ghh3TveMc7yvHggw/uvvCFL5S3riFpJh441vm3DcINC0Is1l//9V8XJY0VuOKKK7qLLrqou/TSSwvBbnrTm3YbbLBBd5Ob3KRbe+21S9yQM5bJayveZLap92pK+ifSEHE+8YlPdK9+9au7z3/+88VP/iGK43rrrdc96EEP6t71rnd1f/d3fzcVl+R7IAE3001H5bYP0o7+b33rW92RRx7ZnXPOOcWaJRx52tOe1u2xxx5TO/35QfyVJ8/0inv5bWi4hkAKBKNoCEeJf/rTnxYFfepTn9o94QlP6Hbddddu99137/bbb7+yeReZKKKwlDLkvP71r1+ukYBQ+ljGWAf+wg2njGuC+BkIsiP/t7/9bfe73/2uuEkv76RJ3wbjww47rJT3+OOPL4Tzbpr81NM3Qz70oQ+VDcq2d4kvLoRY8gnBoJGsYUFAAAShVJT/17/+dVHAD37wg4VsIQeLdtppp3UvfvGLu5e97GVlB72wgKiEskuP4lLUuEtbOvygVuDZkEEAEIuwbl6LkQ4S/s3f/E3x9+rMvvvu2x1++OFTVhZBlT/l80oN4v34xz8uAmuttVYhWAaDIRrJGhYEhCAUEc4///xyz3LhhRcWpcsbyrk/+8lPflIswWtf+9ru7W9/e3kfzP2NMMJKh4I7hkyOdT7STX6zQVhEAmQL4QAhTGtNO00/3XN99rOfLdNDU1x5pDwZSKRH1IdAPTWcrlyNZA0LAsWHjPhIlHe8IEoXkgjHApg2fuADHyj3Te9///u78847b2raFYWFEErcTBFjHeeCWBZphiTAon33u9/tTjnllO5tb3tbKcPXvva1YqlSp5QjVpQ1MxAgqvvKG93oRsU/09/UcYhGsoYFgbJHCSmYET8KB5l2IYiwGf2dU/Jjjz22O+igg7r3vve93Sc/+clCUgRNPOGGhAph5gLliKVRLlbN1PVLX/pSd9xxx3WHHnpo9773va+4ySdECaGTV+rD/Q53uEO38cYbdze72c2KW+qcsM7rMjeSNSwIUS73NY5W9iwOODfyZ3EDCYXN4gMicXNENhbN/RCF//rXv15evIz1oNjihnjSnivkR+GlBdJxb/gv//Iv3b//+793X/ziF4t7FivkYSBQLmHlrQypg3BPfOITu0c84hGlzsLk/s55nVfQSNawIFA+ymWaRTEtnd///vfvbn7zm5epFaWldMI4ug7xgHJSZBbmhz/8YffmN7+5e+lLX1oWH7797W9PPV8TN/dWlH6uRBNHWFNRD5MtvLzuda8r01VpK6P0EEs5LN5kIAixiMWSzTffvJTL8v2tbnWr4p5yhKRIlvjBdf+px5/Or7WgADDsuEwDMo0IMhVI+IQJXPNLoxMdUmOYxqRC+dWXMmdhwb3KuuuuW+5VfvWrX5V2pMAhpLrHQqVtuDsiqsUIhLMgYZkcEViNWBSrlmeddVZZbg/iBwhxpzvdqdt2222L+ze+8Y2yHG9KaqGFlZSf8PJXPscIpKwIc5e73KXbaaedysd5ttxyy+7GN75xqacwyTP9mH6v+7WR7E/QoBrbiJYOgGGDpRMg7sLXHeRYx8n5MK3h9SRDe1FoJDF9uvWtb93d4ha3KFNHiopwsUppnzW1mX6w4vijH/2obGNyn8YSIQ8FR0CPAC655JKpdNJfzuWJZPe6170KqU444YTuwx/+cPfVr361lC+kSn7IHcIT4Lf++uuXT8ztuOOO3XbbbddtuummU/XhX0vi5LxGI1mPNK7GJ6Ahddyw0epOqP2mc4+bdJJW8oJhGpMIdVEHBHNEJnW1s2OjjTbqbn/72xdi8GPtKHTIFvBLOpQ9bS8sIl1wwQVTCyL8rE6ycggIadO0KyuDDCygezxfrkJY6ZkOOmZgBOfyBWUwSFjceNSjHtU95SlPKd9xNGiomzSVbT5o26p6IJbGHTZeOo7wj5vzXNeo3XQc4ZYOhBBZOlksmGSkfeq2cx04V9/vf//7ZYrnGZmVPYpOEC/3WkDBtReFRirputaWyHPb2962WCj3V4iTviDyEg6QwVYuq4a5L8sAKp1c85OHuAi8zjrrdJtssknZrfLoRz96alGjJiGZDxrJeqQJ0kl1k6RBHdMZUZA6LH+dRHJdow4Hrp0Pw00a1IPUJNMuaZu0h2k4C+ZB78knn1wszPe+973izgqCOGnXtKcjMnCn6AYm6SIht5kQYqStY4XElUcNebn32mGHHcrq4W1uc5uSvvzEcy7e3/7t316trnNBI1kPnZ9Ona4B+WmmKE7c4l5fk3p0jNKkg/lzE8bUxfUko64/xCqlrgSRcs062U5lZ8gZZ5xR5Jvf/OaU0msnacaK6ZNYftdE+zmmfWvIQxzCT9yQNsKdf6a4yrfzzjt3D3/4w7t73OMehWCmm+ISZBVeOs7FmQ8ayXpoZA2XBqw7BdKZOt5OATfllqyzbA06zDQEcYx+ph12BURpomRRDp3HL3lMMtRHm4UAqVPtlraN4juaQnpOZSvT5z73ue4HP/hBcafQwuqXOm0iLqQd+UFIkLaWn+vpysMPskDygAc8oDz38llv/ZYBMdNMabsWv5HsGkJHDKFZTA8sJ7vBNrcnNodalnbuPSlLzBpfx5hKEB3lxt+zIvcFri1pW9q2QpbpEcy3w1Yi1J+kLo7aT7tSTnDN3bU2SxtoY0vxHhB7dmW5naWTXqaE4opHnIdoNaQnrHiQvFyHGOJx0wf65q53vWv3kIc8pFgxhEs84eWD5AhGQFoZAOaDRrIerFHdDDqLtbJUbD+b0dYuBJ+GpiCgs9IZOi/x685l0axK3f3ud++22mqrsgTsnSqrbfyuSYetNAzbjWgXEmhfVoGbeoNr03RulF487e0VmVNPPbWcZ+OwtpSPdjVTEC9kmg7iaFvEy0xDXOBm8cS9l6V5D5gBofklP+d134ofss23zxrJemRaQFgqI6qbc89YLB1r6IyCOoAIm44LXBMKIzzoGMLdliMPMz0kfeADH9htuOGGf5bGpIH6RIVq5dNG2oAbItX1rAkSd2G5sx7u16xCvuc97ymzCArPD2GSXq222hukxV/Y+Gt714S1MjV85jOfWfrB7IK7vJE/A4O4cRc/7kFdz7lg1ZNMQ6mijgIdkkbKqAtGTqTyX1d2hJuyuOcywmlwjS18mivK4bp2I64T1rW4zuWro01VPIfxoBPh3GhHGaJQIDwRl1uu41YrV8qz1FCOGsoG3OPHTT9A6pmpWOrrOtbDbAG5PB/zbQ1vJ1uJ9LKlekqvbqM6rxCaf/qa2+1ud7uyJO+5l9mEaX3CKtvw/lh63PlHR6SZ/OeDVf0wOgRLoxgJ60bSaIjkxttu8BNPPLFMDVkz92IsnI7XAdJKxwbp2PoY0TGUSF7icdPpFAiBvQ7i3s4WIX6ex6TjIfcjGRwC6aX8yStucV9K1HnX+U/nrqwQN31B4hZw0x7I4BzB3LfpD32RASxpOCZtmO5cPPfEpop2ouShNOGXcgTicYt78ovMB6uaZBowHVGPbARpjJa25xxzzDHlPsDIaUS1SkjJNSylJzVB605MR0Qg8Vwn3zotkB6yuc9DNv5WI01h5EGhUl5xUm6Y7bgSkbJlwBm2F/8c1d1Ah1y+FGVmYb8hpE2nA7+kA85zrT8tVmlrFlEaWQ1OWYSLQNKDYZrzwaqfLkbBNYxGo9zcWBLvL3nFwkdTuGe6km0/IYQOCUFCmnQ0t1gs4I7AkKbN0YgpvPgUCcTjb6XLVObJT35yWZkUFuGFM8WUbvJwrPNL+invSoQypm1I2i3Kzc+5Ohv8/L+YB9ami2YbCCE8sgiXPqjrnvpzJ5D0tZf+1Z5mDLZKPf7xj+/ue9/7lrZ2vwzCSifxAunJUxr85oNVTzLk0UBGrFwjmOmhVx50oM4DjUig7hwd7DsOLE8IVDd0OrSGjku6FCfxgqTLT1qEFdPxe++9d1mVFF+H1+mLJ2xIpozpwrpMKw3aVTlDBO2hXsqcdtI3VnPtmP/gBz9YFp34IUbCalfhUv/p2n4IxBBeW4OpqHimj1tvvXX3nOc8p3x5CvmEI/zlk4ERog/Je65Y1SQLYVRRo2ksm0vf+c53limiLT4akn8UN8qgc3POT1ydrYM8+7J4gRQ6RljpUxxW0EuIiOw8zZtRtFYK+elE6YsrrOV9z22e9KQnleXlDA5QxxUHpJE85tv5SwllVH+KbskeovTq4pkjcvkcgGdlBj9tEjKS1LOubyR9Da5DXPEh/UuSnjCI5t0wJHvsYx/b3ec+9ylu+k6fCSOuPMWFHOeKVU0yDRmigLn4gQceWKyY+b7GI+kIECfu4iKXh8lWA2258cffXjs3pcuDZWHEk47pjEUT9xBWLG0ZIu4xhBFWJ1G4dHqgnPK088D7SzrdszUWL/51d13TTl8OpC9I6k3cJ3kFxfYqC1B2gXg+JjwkvHrHTZtzd510+GvbECJhuSVffhC/xCWIZveHpX0vniKbAU5a/JOuo+v54FpBMspvZPzIRz5SXjm3wFF3gvO6GdKoVqHufOc7l13ZNo/a/c2KmTpG8cVNR0lDfkY/hDbd8Xavm3cPsz3/MWJn+pjwEAWRniNyeVhq+mj5OeRMPilv3FY60hdpd21gVmE7lUUnC1DaDNIu2iHtA6kr94RJetxrkhnEXBPhSOLX7QfiJK5BFNFss7KJwLTd7CXp6ltpzAerfglfg1g2z2e/8nA5jayThh1lpNTYXtR72tOeVhYkWDFTOYsQIZh0CIirI0jgZhpB73e/+5VRUlh7H72ASMmiQHWn6UQKYoQXFqG9lxUlGHaw66HbSoT2Vl+W3hTdlNrLlD6DjWDqGjLoD3XSzo7iOmob02v943rYd8lDW5l9IIi8Mi3lTmpoU276RrrKYeahTNL2kDpT+hzlNS/0BVu16Bt31Cvs6Lzzzhvtuuuuo77TMGvUN1Y57xvrakfSN+qovxcavfe97x31hBz1SjHqSTHqG3zUd9io74yStmvnxDn0HVzyy7Vz8Qm3nuyjk08+ebTDDjuUcpBecUZ9x01d9x1eysNdefppy+jiiy8e9Raw1AekJS+SvFY6tEF/nzPqp9Kjo48+erTVVluN+vvZqbo6pv4k7aGvhHPUTr1VGT3gAQ8Y9VP2qTCkJ8hUGv0MpPR3f1sw2nbbbUf9PVZxl24/BZxqb/m6ThpxowOOrjfccMPRXnvtNTr33HP/VJP5Y2ItWV/2qREOjES9wl1tRDPqsFymIz1pynSEv3BgZDLKCQ8sj10YvmTkRpjVkoZwwhjxXCdPx/oc+Ce9hE1cYuph+ueNYcvU8lceYfuOnbKMwopn5Hd/Z++juDDMN+fLBeVP+6dtlZ1FVi9upuse9PvGoc+wufdSN+EShyVxTbS5eyJpSNsik61oL3nJS8rMwNTbg/y6vUFbsD520TzjGc8oYd1PC5fZgfCJV7c3AXnyUx6zIG8HeNHUgky+xiVswkmLxVSP1Lful4mfLqYi6SiVBO6IZkuO7+u5J6orno5JY2s87xNZzjXF82A4Sq8xM0VJ/JwP3YKcS5voFHlRHKtXpjPCUJQ8l0snpeMACS2k+M6fxRbxQdykDTnOBXU5FwrlI2kfdQjhtJ+je2BTQ8+9/FOKP6JIHUndVuK41nfiIpv70+23374sBnmuhbCmcwbQtEPg2oqvfaFevrQKbFHDTg/f7OCPOCGFawJ1Ojl31P/upZHNM1WLWPLQHykvkZ5y6+s63YkmWSoBOdco6bi8hes1ClZMg/BPA2oUYSm9UdKyOUvGLaOaMMKHJHWeM6EuD+RaGSgOq2S0rXchJJ+UyzWFNeJbyWT9dCykfIH051u2cYBSKac6pcxAidXLcy/b1Wz49fluCgrD8osLyiYN1wY+/fK4xz2ue+QjH9ltttlmpd2Qyz+71CRLnRxDssc85jHlvk4cRDODcK/NXxsb3LQtZEAYphVBNKueLLDHMwYVC2MZLNVHXJIBJ5hYktWVSMOkkuns7KY3LeOmIShFkDhWk/yLh3eLWIp0uEYXhwJRdu51vtOB/zBM7Zby6WgdjzyUxUqbsvELycQRXgcbfa1w2s+XMsYfXM8Vw/ItBNqHggbKoUws9Mc+9rHyUBnJPM4I5K+OsVYgHe7ctInFHgOehSczjOxj1BYsO5LZz5g2SJ0ca5JJN/2IEFaLDVZmKuKFaIghXMojL3GUR9+nb9TVjhTW1LTRTh3hUgbnw76Ye8+sMES5HHMOudZwphTm7iqtETUWvzRGrIpphSf/OlejZ0VKOHHFES4dOROSf1A3vA5UhnQa2N5jlLb6WMcTJsrB3QjqnkAHK3fCCuNcPnOVcULeJMrpaGrljYZ/+7d/K9NE1po70Y7umaYrhzbRTwa9V77yleXz3QY+M43UUXyrs8g2F6TvxTVQmTF4Dvm85z2vO+CAA8rHTk3F+Stf9EJ+8nAMQjSgV/SLrohD35xPh4klGaThA+caQWOY93s+xbRnpI0iCEOMREY7BDP6IRgrIZyO0XiUfU2NNxOUgdSdlA4k8g/pt9lmm/K4IOXkl3qJo0w6XH10rvIpk7jOU6/lgHIpizLn2n0LBdQHymbwQiwQlrKrl6lcCKCOFihe+MIXFoJZsEh7pC3SlvpK/PlAWsrBgimrQdRiimeR/vjCv8zQA2WSjylm6pQpJyi//JWJNZOO8MJw06dDTLQlS6PnXCWJilvoMOprFMoeRUyHOXruZUOueyMNp8OF02A6UVyNxj15zRXpoJCgLl9EGGUzt7eaec973vNqFox/rsVHMEJJg6Q1V6St5iJzgXJqH1BW1wY2bxeom7ZEPAKUPe2ZupnGsejItdtuu5XtZNzEYSGkk3y0Cfe5lq9ue3FTN+npc/d9+t9swufBkdxKrrIFzukUK5r6qIcyGhySXmY79KYu38SSTOORGiqocpZpLRcbabgJp6OcJ4xRzbTB9hkWTQNpOOF0pkYVT+NlRJ0LkkcEUlYi70jCyENZ7DJQDpAnd+XRycJZSHBvY0mff+LWyjMXGSfSPtJVTmWhZKZ04Fo563ydqxcFZz1849ByuxVE90sUOfEiddkpubacC8StkTSkr9yO0vLg2nYqg+6znvWsspJpGklP0nfCik83LKAYDPirS/RLeySPYGJJBmnodADhpoPthzP/jhJyrxvc9igEY83SoTkKm9EqSh+/2ZAygDgEuKXxU1bgz89+SAqXZWFIfvzVgxJbMTUNE0/HBs6Fm02S77iQ+ipryuseKn8rpFxpB2GjjPkE9rOf/ezuBS94QRlg7G7hr57CanuWQnjuJJhrPVKmhK+vlRu4aV/5WYE0hXzFK15Rdvr48wzEVyf9YgBg+RDywQ9+8J9ZZWml/4KJJJlKDRs5naCiSOaZhlUolc50xjl/HZ6GirJyD6k0mKmEa/mkY+aKjLTiSV86yhDC5wjylqdO9EyHRaNYpkkkeUtDHK/b5JPT7iFT7yjmbAI5Qu0Ow+vZkPxBHZXXiptvaSCNcimnNlF+92ZW/kwLX/SiFxWLYZU103pKnKl7oC0hbeaY89kgLlEnZUs7xp1bBlL9AtzcH/orJ4sjnp3aVsfa2b+65557FjHFV25llq540s55MJEkg4w8UFfK/YrlcFYsyse8Q5RHR1sS9tA5nZ9Ok06UJTJfKNdclUDZdbayIppFENNX+SYN5UE4YQ0c9v2pl3rwIzpam8wm0q1JVJME+LlWprmgbqMQHYlM/XywhsUKYdx7ItWb3vSmorjIqI7iaLOUb4i67DDXtoVhXHCuLbkH0uSurAa5ANlMZf1lkv/C9jUtBMt+0qyUilenV2Mid+GnyCrnnFAMDWWk93xmn332KUvJ6RBKo2GF09nuA/bff/8p9/l03DigzPKWrzK59rDTFrD99tuvPANK3ZQvpHKz7aGsqYwBQhtIgzifDfIiFEm6ykBBTFPtinCfxD3pzoYQSxyDGUUTz2wiHy818EnP1JylprhW+biFzOLXGNYlbUQ8HrBI4jlo0kh4R3UwS/HWe1YFh+kF0gvWFGahmNhXXepipwN0rn8BsY3KjnvWTMPx0xFGS0rhgaSHnFaSuA9HuqWAMim3vFMXiultAW9Gs1a18giDDOpg6dmDaeH5R7GjsLMhaVJs6TpSTOT1KAHZskw9G2qSqY8yhPD8WF7+3JTdQOHIP/2WOgjvPPFrTDLJZDKR6Bt2ahd6Py8uO9RdX3jhhaOXv/zlo37KNbWju288LVl2tfcdWHaAv/vd7y5x+45dlp3s8uwt0VTejv2IP/rmN79Z3gJQbmVW3pTfkXDrlXXqvFfwqZ3ss4lwvRUr6SV9om36wWd04IEHjvr72VKmuUD7aftAX5DULfUkwuqjWlJ/kM6a+oO7NIT5xCc+Mdp6661LfZR92DY3velNR/20dHTllVdOlWFNiP9MYRaKpZ0jjRF9o0yN3H09pkY/UxajZyAMf3AkRlNLr85r/6WG8kLyN5qbtrm/4kfUi5Xgl/DKbDEBuPXKWqyAsLOJvHplnUqfVSFu4D3bct9hYSVtOxukV0vuv5RHGkSfEG7Kyk0ZiGvxQFxlXG1YFTXSMbUCUpgoVDqwBoUldQcvB1JmiFK7V4qihQgQhXWt7ICMBAlBfeYi6pzpoAUVyo5o0vH5NSuzIfFsUBbx6naMm3oQdSLJI/6AePJfzZhIkqVDo4A6jRuJYsYvqN0TNsq8XEhZQjCo65BriugIIRuwDgYU/pB4M4k6U3BWwzVIO/kgnfZE3rkgadTlAumF0OA81oybcigDkZ+4yFansVowsSSL0uQ8ney8HlkTrkZG9KH7UmK6crmmaPFThyida4pJIXPkF4VV58SbSUDdkUlc8VgYabj2LMijBNdzQcoAjkQ+4ie/oZvr1Itb3BN+tWEiSRakw4DihGRGR9dBOj+dLVz8E3+5EQUbkixlhriT2hLVCj0bpFeTLHEdPZ+z692D+vm0S8pIEm9IHucIbXBwPR0ygKw2THSNdGg6Nec6UGdNB+RKxyfeXJH0IzXW5D4T6vBROtcZKGo3ZXZEDtMt154z2VGBGO6vCLfZhJXyCMDzNs+tLHFbCLLgYoOybz56xDEfZRdWmxNlJKkbpL1jvVzXhOJXh4e4Df3SPuCYNOq0wHUdbzkx0Q+jIcQB7p4vHXLIId273/3ucvPOLR1j9GcpsmfO59b46fB03JogHfcUUaY6fKyicsyWTpA65CiedKyM2jvnIS5rA9JVTuUXPjsn1M+CgrjIp1yzIfklTXEQzp49O2Ds1kiaadeZUJcfcj0b5hKeX+qlLM49sLf66VsfPifHOtoQbqBwf6oNbd61q/6Nb3xjGYjklfyGqPNfU5iFYqK/u6joJI1IaeZKMltjKDP/uZCjzkt6BBI38WdLJ5BWjokfJfK6PZJRGqBIyu3eicW6973v3b3mNa+ZentA3KQ3G+pyqgOlpMTSYumSXsIsNdKuyVv5tDFxrk+9jbDXXnt1p59+eql36mCxRhvayuVTEi9/+cvLo5rlqEeN2YeqhgIdVRNqKOlsZJirws8F0oriUSBisHDfZHuSHeL2YbpmjWaThGWxxE18U0cEk5c6qMtyoG5TqAdA56yssvr2h1dRlDf3p8psEOJuD6j6rAQ0ks0RlJ3yhUQ63OgZBQjGSbAa8gIko0wUK27zzTOkBVaSqA9IK7IcqAnmOCyXa9bJdNBnI3yqgOXyak2+C+Jtd7vl0z7LjUayecD0rR7loxBRSMpaT7fGAWlRFulK3zmCEVAWisffcTZJ/CBlT11ShzrMciCkSvkMDMS1erBWPn5k/6kP7eSjO95utniz3OWv0Ug2DxhB3WDrwJpIUdDFAKWy4OJexBHJ81A3ShdFnCtSVgSN8jqvLfVKQF2OYRsb8KyI+oN1/2/gn3p22WWXYs0sdrg/Q8aVgEayeYAyUm5KrpMduQEltRpopStu4wLlQmxKE2WLZaKIIUkIN5MEOU9aLFymjrUyLweGZR3WGertZNmy5fFEtouJr4/G3RfXBI1k80CtkMS1TiTOMxVzPk6ETDUxkketePOB+OIlrVwDwpLlwHR1hLqcRFtDSCRe2l7ZE8ZxudFINkforCilTvSumjewfRXLp9r8E4hvb+R/yMYJChRLJX+SPChSyjUXSCPphFQZKFYC6vIFKR/3wHVdh/jV8RrJVhDSsTXSqY5RcPcrvhSFWGeddVZ5OdRr6f5AwTF/8M7fB2+ydamWKMx8kLIApSG1pYlbkOvpBJIWpDwpE6XNAstKQNqsLjO4VtZ6gYObOqbswzjLhUayHsgTJQvcb1FkfhYdwG6M97///eXTBnvssUf3spe9rHvrW9/aHXHEEd3BBx9c3sbOThIPw32+TUfn+VbOpTlfDK1V7kekOR9lkk49wjvPvdhKgPIRUEbnIX1df9d1ONfTudVxlguNZD0yGlL+EEBn6SB+COdlxuc///nlr39YKlZK5+c+IIouns9SW+36x3/8x/JPJsiaDk+c+SKjeazOcFCAEC5h1yQNS4tGsh4hCcnIhwwI4wOp/rDisMMOK5+edh+WPYUJS6lZKGTKuW+N5G+b/I2uOPxiHR2vicLLMxLkfDq/huVHI1mPWIVYLwTI0R+4+2cY/yKCcMKwShDSOArPL26WlH3oxt8FsWY+r529lNeEXNJeE5JeCDabNCwtGsl61CShsKaHju7BkOSUU04pq4bCsHD8ECkEg0wDE985N1PHs88+uyyISANB+S30fkE+RP7EeRC/6aRh6dFIVoESmsqFZBdeeGHZDe/VCoRhiTxsFgZBYtGmU1676S3z8/NQ9Oijjy7/2RUyw3yUPmQWJ+R2XkuNod/Qv2Hp0EjWIwoYS5W/zfE/wRY5TP1qJXU9fIUC8ZCJm10HCEikhxBWGv2lEMuGJLmvuyZQtkjyCXGngzLVZW1YWjSS9UAgiu8YpQWLHKwP8A8sbCAUeN3E/xh7mzjkSloEwYQleViNEPNdYQyJhoRJPkS+WYCJyD9WsBFtedBI1oMCRwEdKapPSxPkoKwJQyitMKxZvvnuX0m8sQysWu67hBWXRUMw08ikN1fU5KjJlKmtMrKMjrl2jAhHQsCGpUUjWQ9kQAKKH+uTlUBuIQUJ0cTxJvGjH/3o8vDZZ6G9/CiueEkPEM450iKD9ISZK4RNeEff+/c4wa6TT37yk1cT7hZaHIlV0TPPPLO4WcRxf4lsiBgLl0Ej+dT5NSwcjWQ9akuBDHmfKtaCv+OQHNx9H0N4r1f4BjuFRcBYQeGlw6KIj3zCzxfSCcHd2/mzOi8t7rrrruW9Kkdujv6WiPhTCu9WeR2En50q/pXEP5D6M44QyxH5UzflDAEbFo5GshUOpPIOG3JCpoCIivimn5mGei7nsQMCuc5rN0gjzLe//e3uqKOO6l71qldNWWYWWzruJwHRDBKxwg0LR2vJFQ5KHyvoPIJ83AjkGqlCrFhi4V2zVhZyTBs9ZPeIARBY/FivpNEwHjSSTQhy3+gISIM8EOIBC4QwEHIF/Lixch5NIFnuHRFSPFKn17BwNJKtcETxESHiOveKriGWJ/5Qx3MeQSCLJ+LkGhkROOTi3jAeNJKtcFD6LJyQEMMRKfKoAEK4EIW7V/O9qi8OYkqDu5VQjyCkI30WLXkJmzQbFo5GsglArAoi5HEAIA1SxIqFMCGZc6ucFjf4WSzxLM/nuP2rvxVRQChpSi/Tx4bxobXmhCCKjzjOfWeQJWKl8qeGvgLskYJv3fuoDBLxE8YHQX3c1Ec//dG4+NJBMMRFzCySIGR9L9ewMDSSTQAofpQffAHYC6QvfvGLu3333be8oR150Yte1P3DP/zDlN8rXvGKq7l7pnaf+9xn6pNpsZKOyBbEvWEM6DtvYtEr3dX+d9j5+eefP9pnn31GN7jBDcr/LveKZO5U/k+4ny6VYz+aj4499tgSvrcM0/5v8BVXXDHac889SzpJI+mQflo16u9rRuedd96on46NzjrrrNHOO+9cwvATxrm48nW+2267jc4555ypfB3r8veWZHTppZeO+qlc+V/npFGLtB72sIeNLr744tHll18++u1vf1vE/yNfddVVo9/85jejyy67rBx/97vflbI5J7///e9LPvJLvspBgro8DeNBs2QTgp5w5cj6sDgeHpsemg7m3JTRFNGU0ZG7hQ/nxD0ZSCtWzHSxXuSIe8P40EjW0LDIaCRraFhkNJI1NCwyGskaGhYZjWQNDYuMRrKGhkVGI1lDwyKjkayhYZHRSDYh8MDYQ+L/+78/vlCZB8i5ng9Gf9qi5ZjrWhrGi0ayCQFS2Y0RIoR0f/jD9B86nUlgTXGgPm9YOBrJJgB514vkdZf6a1qOdufHqs0kwiJn0kw8qNNC3obxoJFsAkDpvYaCDNlbmE+6hXSO/GYT5PGOWQgqXm0VwXWmow0LRyPZBAARajJl6lgDaeaCEAuQtLZaIVqzZONFI9mEAIkylWPVsqM+U8CczyaxYJA0E587opGG8aGRbAIQ60JMEwmSDQlRk2YmQTZAqhBOHtxjJePesHC0llzhQKJMFyk+cnlHDClCDOJ8OkINJWlmSsjNMV885p7v6jeMB9fpG3li12qjOBnRKdt3v/vd7pBDDil/jJ4VOO783dOYaj30oQ/t9txzz27HHXcs/vWoLRz4NqHX9v1LJgWUBsTfiH+rW92qO/HEE7uNN964++xnP9u94x3v6D7wgQ8UQkSBpe3aV6J8Olu+W2211VS5wZFQcPk+7nGPK/+LFkUXn5846uCfZHbZZZfyF09Q+80G5ZaXT8IJn5c8b37zm3d3u9vdyvdB5AfNmo0HjWS9/0omWdJI/tJCLh/CcR4/MhdSJIy2yee/CXJtscUW3WMe85jyN1DetG4YD9pQNQHIIJFzX/79zne+U75t788n/B+16wsuuGBWEYd8//vfL9ff+MY3yh/P+xN5A8QZZ5zRXXzxxWUwahgPGskmBDXJQjpWiaWDTAPnI3VarKjv459++unlX0FZ4obxoJFsQoAMEIJkuklCMESZq4DPwonLauX+z59RuF/j1zAeNJJNAHLvBchVWy9AEpL7q5lEnNzHWUUUj1s+kBp395AN40Ej2QQgiyhBzhGidnc9m7B4eZDtUQDhhlSs2ZZbblk+nhoCNywcjWQTAERCBBbIkSBByOeclXI+myQ9SHwiTSuMPuN929vetlw3jAeNZBOAECwk89FS37XfcMMNCyGc3/72t5+TCCvOHe94x+6Wt7xlsVobbbRR+ROKxz72seXxhmdmDeNDe07W++d+B4SDlfScLFZKGaSHLDvttFNZnKjdhZsNtdXzd7emjv6cYv311y//9OK+LGRO+RoWiL6xJxa9cl3t2+3OV+O38Ov0eis2euQjHzn60Y9+VL6F35NySnwPfzb59a9/PbrkkkvKeeKpq6Oy+H4+6QeFUqaGhaNNFycAPQmL5emJVo5gR4ZpI8sTcT2b2Ea13nrrlXNxWEOLH65ZTtaedWPxGsaDRrIJAJIhGCBZiBY3cD4XyXSxviamiDnn77phPGgtOSFAiBxDAMeQxflcZBgeoUIqFsyxYbxoLdrQsMhoJGtoWGQ0kjU0LDIayRoaFhmNZA0Ni4xGsoaGRUYjWUPDIqORrKFhkdFINiHwABns/iB5aJwdICTbr+aD+k1pcC6dhvGhkWxCkJ0aIRSSXRNiTRenPr8mRG2YGY1kEwKKj1ghGqyJENxmksQj2auY64bxo5FsghASIJp9hsiRIyDPH/7w/39ZOMQh3EwFHV3X55mKug6RG8aHRrIJAKVHAII8xMun4DyEyS56UpNFGNfZDBwJEQPnjWTjRyPZhIDie9crX/312bYrrriivN3s61LeAr/qqqvKtTe5iesrr7yyCH9ElA5BJgLIBvEjDeNDI9mEAVEuueSS7vjjj+/e8573dIcffnh3xBFHFPHJhcMOO+xqbjk/8sgjy6cRzj777O7SSy+dslo1Qi5+tYVrWCD6xpxY9CPw1V7fd74aPz+QPCP8bnOb24zWXXfd0dprrz1aa621itzwhjcsx3XWWaf4Ocb/Fre4xWijjTYa7brrrqPTTjutfGIg+acMaYu4NYwHzZJNALICmEUOnwnwvfrLLrusfHgnU0LfyHe8/PLLi59j/H/5y192P/3pT7svfelLxQr+5Cc/udoHTHtdKFbSsSdymzKOEY1kEwALGxY6kAIJEA1M99ynZaEDCQMkiTsgkHu3iy66qPy5hO/eu2+r0VuxP501jBONZBMGRCAIhHDOHWOJaisUP0QLMZHVgol/dLFIkrjCIiwiS6dhfGgkmwDEGoUQBOopHbeaZMOwOQ/xQiTXzrnVlq9hfGgtusKBMJQ/QALXIdSQFCFTyAaIRMAn4G584xuXf+v0GbgQL8RkzVi9xG1YOBrJVjhCGkAo910ECUKeECpEIc5jmZyL45uLPtHtC8b3uMc9yj928gtxk0+ODeNBI9kEwMIHIFT+7og1Ij6xvfbaaxdBItYpHyv18VJEIsLe4ha3KATbfffdy3fwEQ+5cr8mfSuX7Z5svGgkmwDEIhEE2nTTTbv999+/e/Ob39y95S1v6Q466KDubW97W3fooYd273znO6eOvs1/8MEHF78DDzywO+CAA7q99tqr22STTYq1QipgzUD6DeNHa9UJQKaAEVbJH6iT7bffvvwbC3G+ww47lD/S8KcV3Fxz33bbbcsfbWy++eblE98sVkjGcrGOSMaqNbKNF601JwAhA5g6ujZNNCW0lzFHFi/fto/E39QQeUJUYMGI60wRG8nGj9aaEwIEIln4iCUKaUg9/YsbWDEkyJM4rFnI5Mg/cRKvYTxoJJsAIBcLRrIaaAHEOb8gCxmATKaAJORDnpAMpIGsrqUZK9kwXjSSTQAoPkLlHClYnlisEM8x4trUr57+cUfCrCaaWkqHW/wStmF8aC06AQiRSK6HZIhf4FoYkrhDN6QKweKX84bxoZGsoWGR0UjW0LDIaCRraFhkNJI1NCwyGskaGhYZjWQNDYuMRrKGhkVGI1lDwyKjkWxCkC1TdnzYzGvzr4fG890KlfgeaNtyJb7zwHl93bBwNJJNAJAJMRAkJMmu+ZAlexTnIsN9kNLyheF8iThpN4wHjWQTgNpisWb2HiIEgmWb1Hytj69SSZc0y7W4aCSbANREQDDnP/7xj8vHSn/1q1+V7+I7/uxnP5tVfvGLX5Sw4vvcd9LINxhNQxG5EW98uE7fmBPbmopOMiIb6b/73e92hxxySPkuvKkPf+787Tg3rfKG8J577lneIObPEgTCgS/vvuxlL+ve9773FQWUBsSfIt7qVrfqTjzxxG7jjTfuPvvZz5bX/X1vHhFMuZK2a5Zjt912K/n6zkbKDY6EtZKvt5q/+MUvTr2GEiSt29zmNuVtZ/Wxk557LN1skI/w6uQbIOJ4sfN2t7tdd/e7373bcMMNSx7CqWPDwtFI1vuvdJJJQ/5ReosgN7nJTUqaIG6d3kxIuJRLns5vetObdne7291KGZFtnXXWmVN6DbOjTRcnAEgQofjIZdpHfOO+Pp+L/PznPy/fys8U0nfxv/Wtb3Wnn356EVPJDCoNC0cj2QSA9SEUP0cWaIiEm02ApY21RVwWHuHOPffc8r181w3jQSPZBCBkqInhCCEOQb7ZBGINXTs3DTWVZilNt1m7pN+wcDSSTQgyXUQI91IBcsFc759CKsgRoRDOvZ6/WXKOdA3jQSPZBCBkiDUiCGdlkV+I5nyuAqacyJQFIQstFmV8yrsmcsPC0Eg2AUCqEClTQ0AMfqwTid9MInymguI4Jwh75zvfuXwEdYMNNpizZWyYHY1kEwDkoPSZLlpev9e97tVtscUW3ZZbblmsD3E9m4h3z3ves9t6661LHNfOPTZ41rOe1T384Q/vbnazmxUyNowH7TlZ7095g4zgK+05WcKqw0YbbdQ94xnPKF8GjrtwZDaoB/EnFPJTLh869TCaJfOAOmhTxjGh75iJRa8sU38qDs5X2x+zk55YU/lz32677UY/+clPSnjp9IPA6KqrrrpaPdYkPXFHV1555VS+4k73J+0N40ObLq5w9H10tWdWroHF6Qk4tQBiz2FPjlmFBbaNipV0nW1ZVhWzstgwXjSSTQCQgCCIIyBYb3UKKUK8hJuLiItojqagpp6EH1LXxG5YGBrJJgjIFEEyAvX5XIFYSBuSus69JMw3vYY1o5FsAoAIkVgt54jA8syHEImPYIglfohL6nQbxoPWkhOAEMmRtUEQ07l6ukiEmU1CnkwVpUXEd3SP5jwWrWHhaCSbACBSjpQfCZAFKYL5WB5ks/iBsEPyQaaODeNBI9kEAzmC+nw2hFQhWCQYXjcsDI1kDQ2LjEayhoZFRiNZQ8Mio5GsoWGR0UjW0LDIaCRraFhkNJI1NCwyGskmDHmG5YH0ENwiQe0WyS6RoX+9e4Q0jAeNZBME5LLLw24ML1siQh4qB9kdUsMuEduwsmPElqrAi5tEWsI0ko0fjWQrHAhkmxNE8ZHBu1/I4q3tK664onwPn5s3q1071ud5fwxJpScN5EJSgnzJB2riNiwM7fMDvX+9by/KRTFX0ucH5Oc8+T7iEY8o9UndUodcJ23lAC95+syATww88IEP7G50oxuVOMJJN2lrn+TXMB40SzYBCMEpPyJefPHF3THHHNMdeuihRY444ojuyCOP7A477LDu8MMPL+I81/wNOsSgcdZZZ5W/XpJWSBiSI1vDeNFINgEIuQjCOV5++eWFKKzd7373uzJV/O1vf9tdddVVU0fCzzHfvmdxkc737/klTWDFWN1mxcaLRrIVDgTz/Q7H2qKxPL74ixSsD4uEHLXwq0mDRD7B/bWvfa37/Oc/XwhW34dJt2H8aK26woFYLFZIhDTIgFju8xAFcm8lHOEecS0dx9yrffvb3y73miEWAiJcpo3CNowHjWQrHJQ+RAhRHOPmGII5R8TaLWGGlo1IC1GJ88TLsWE8aCSbICANgoVQEDJwi3CLDIFcN77xjbv73ve+ZbUx4bmHxJD0GxaO1pIrHEiQKWGAFLFItZUKsVyb+hHn4Oje7ta3vnV3//vfv9tmm2269dZbr4Rxb+eIZCFxw/jQSDaBQAjfw/cXtKwSsvh+/c1vfvNyzY+bv7xdd911u7XWWqs8W9t0003Ls7rXvOY1xWJlilhbxfq6YTxorbnCQfHzF0mU3xTPH0R48H388cd3J510UnfCCSd0xx13XHkwTlzzI3HzXM1zM9/QR9IsoDQsPlorr3BkuphpnOdiCOKeavPNN+8222yzciQs1T3ucY/yx+rciWv/5sLvDne4Q7F+WfrP9LJhcdFINgFALqRggZwj3Nprrz1l3bizdsIgkHNH4j7M57e51WmJNx3BGunGj0ayCQDFR4wIgsS6xcKFfNOdQ85JbcHiD41gi4NGsgmABQqbnT08zmJFpo0slGtkcSQsXKxciOMY95pwMCRaI9t40Ui2wkHhESmKn+lgduhDTZjANULWFi+S8NPFaxg/GslWOJDAlidHRHNEHsdsf+JeWy2IG8vlvJbpUPtJmzSMB41kEwDWJwRAOOJb9kgU5FxY5EMSbpFgSLRc1+6NYONFI9mEIATIdK9ehq/BL2GmA3dxQr6aXA2Lg0ayCQFykKwwehcsbgGy8ENA08Qa01m16RACNuKND41kDQ2LjEayhoZFRiPZKkGmjnORhqVFI1lDwyKjkWwVYTqrNZS5hiMN40Ej2bUMjTxLj0ayhoZFRiNZQ8Mio5FsQmCalwfEPl76jW98o/vqV79ajl//+tfLtxTnKuKRb37zm+X6W9/6VvfTn/60bNfKvsiG8aF9C7/3r3dBRJFX0rfw+SUtdbjlLW/ZPeABDyjnBFK+uUJ4+x+Vy0udd7zjHcvb1j60c4Mb3KCUOeVrWCD6zptY9Ioy6pW5HMH5+eefP9pnn31GvaKMeiKMesU0iIx6hRld73rXK8dtttlmdOyxx5bwvWKX+JHgiiuuGPWEKOkkjaRDeiUcbbDBBqPzzjtv1JN5dNZZZ4123nnnEoafMM7Fla/znmSjc845Zypfx7r8/QAwuvTSS0f3v//9R9e//vWn0lCPnJOeWKN11123pCsv/nMVcaXtXFznPdlGa6211mizzTYb9YPF6KqrrirlaxgP2nRxAtATsViynhjFmrF49i6yyj1Bi8Xh7jibCM96OWfJpOsLxb6X/4Mf/KDMAkwjpdcwHrSWnCAgCFIAouTcERH5z0WERyIkzbmjaXFvabuLLrqopNcwHjSSTRAQgeQ8mI5Ia5I6nns+brGC/H71q1+VhZVGsvGhkWzCgAxDZCo4F6lh+smtJq9FEK/KDMM2XHM0kk0QrPjlXsk5IAOyZKVxNkk8pPKhVHHd47l2bqX0Fre4RSFaw3jQSDYBiMVBBtM4RMvnB1xzd381FzE9DLH8caD4iOfjPOuvv373vOc9r3wItU0Xx4dGsglA7qUQjTXyFeD73e9+5X+jH/3oR3ePetSjukc+8pFzku22267bdttty3H77bcv5zvssEP33Oc+t9t///27+9znPuXDqW26OD60h9G9f6ZgEOVaSQ+jA2FYnE022aTbe++9y5+t19O/+UB4U0J5Opoi3ulOdyrlVTfHlK9hgegbe2LRK/7VHuY6X40Po5OvI/feIpVw0kg60kh6s0ld35mkYTxo08WGhkVGI1lDwyKjkayhYZHRSLaK0N+3jVUaxoNGsoaGRUYj2SrBdJZoTdKwtGgka2hYZDSSNTQsMlYkyUajP+7S+MMf/viOlOu4E7sU+A0RP2LHQtxMkeyMyB7AlQJlGdaFW+qZcoPrHEnql/qknZJeHb5uw4alx4oiGWUgQClqiaKEeLmOX64TtyaT8yjvEHW45UDqUEvK5BgyBa65p84JK149KCGbLWRDv4alx4olGWWK5eFGSTJKcyfO7QmsR2/x7MVznTTEFy57Abk7UsIo6XJBWVOX1Of617/+1P5H1xDCcXd++eWXT+2qh9QnFls8ezeFzTV/4RqWFiuKZJSIUtSKECUhNvhSyoSjUBSSm3Nv9X7lK1/pzjvvvEI8QgnFFcfrIb7ElI3C+aPz5UBI4aiMjsqpHq5T79RVPZ37FsePfvSj7stf/nKJz089M4Coj/jCq2vgWnohZcPSYUWRjMKQKItjwL0GxTI6C/PLX/6yO+GEE7o3vOEN3cEHH1w+BBNl4u+cUESje167RzaKu1wIgSBH5fWRHHVLudMeOfcNjje96U3dC17wgu7www8vH8CxO199QkwirI/kOCYv5w1LixVJsloCypERO9bHqP6FL3yhe/vb315eMzn55JPLxzpNpRJGPCKtpOGcUhKKuxxQhhA8R2WONYt1DmL1uAnng6SnnHJK9573vKc77LDDuo9+9KPl2xzCaSOirjXZct2wtFhRLR5CUATKlutakILCGM3PPPPMomDvfOc7u7PPPrv7yU9+MjVy1+Sh0JTTSB/ldi0PCiv8ckBZMhg4Vw7HEK22Ss5TdqJ+BhODzFFHHVUs+Ic+9KHue9/7XrGE/NMG8kAwELdhabGiWpxShEyEcoQEFCyK6J7kmGOO6V796ld373rXu7pf/OIXUwo5nTI5p7SOCROLKL3lBMujHCGWa+J+0TEWzf2kQULZkUj5U5ef//zn3Wmnnda96EUv6j74wQ+W9hFX3UyPhRFfWstd32sjVhTJQiRAuJow7lEozyc+8Ylu33337Q444IByL0JxgH/Cg3SiuEDZiAUAbxRL07X4yXM5EPKDOivTzW52s7JogXwss7qZGiOWsipzCCaMNLh5q9q92gtf+MLu6KOP7n7961+Xj+Woc9oz1q1h6bBiSWbEzY085UIwixuve93ryqv+uf8IiYTPKC0NykdyTQnvdre7dU996lO7pz/96eUbGUZ3YZZjdKfsCIQsRDmUE8H22muvbo899ujuda97le9t8Fd+bSFerJR7Sm6pqzD83Zey8AceeGD3mc98poQXTvrLUddrO677Tz3+dL6ooARGUgqjo3U8N50Pw1HW6I1AyOS+4/3vf3/3kY98pPvOd75TRnVhpUOkA5SIyCNpUVrK6mMzj3/847ttttmmfI3Jx2iSd8pUA7E//vGPl39MUbb4Sx/EWWuttbonPelJ3U1ucpNyP2hZ3YJElD1xHMW7y13u0t397ncvf+ogfsqaNB3FvfGNb1z+VGKjjTYqws30kZWT7nSEqfPStu7X/FPLJZdcUqyZMqZc4iZ+JGWAtF3t1nDNsSQk04k6Lh0ct3RuztO5IckVV1zRnXvuueXjNCeddFKZHtbhomy5dh5hATbbbLPuQQ96UPmik4/TbL311t1tbnOb8gFP6cCQYOICK3PWWWeVxwHzJZly1WUSl9td73rX7h73uEe3wQYblPhDsoRwyGBwQLA73/nOhXTrrLNOcTf4uCcD8RLXUZ5EOsp82WWXdT/84Q/LNNIU+UY3ulGZhsqjrnfq5JiFo5SlYeFYkumiTtNhuXHPOUuVqc5Q6XT2pz/96bJqduyxx5bFDXFiAYWjdHnIWivozW9+8/LXQi9+8Yu7l7zkJYVg/hrI9ErayZNCuiaQvB1TpkxH5wNWMMouvqN0nSufa+mvCfIXRr0QzKfc/t//+3+lPj7hxsrluZiwqYdz0MYgPqtvmv22t72t+9SnPlW+tQjiQOKANBA4dW8YD5akJaM0oCMJcKMoIU+Uw8j74Q9/uCxwsCZGb3EQT9goqSmU6STFpcDEZ83Es7Tve4Ibbrjh1M4HipU8hA2ppeeoDPIAYZHFtXP5zhVR/iiwshJpyaMux5ogbkjJCimL/w/753/+5+4tb3lL+T6iMOogHKRdk3fyBzthxNMu2le7Ca882heUi8U0cDWMD0tGsgilidK51tHuNSgLv0svvbQsR1uedz/BX+cLq/Mpp2tADm6U5A53uEO3zz77dAcddFC59zKVizIT+UmrJhdwB2Glx0IAxVaelHE2UtSQh3jSJCGBfOXhmHwgZakRN/FZI/dVysSyWbSxu8V3Id3j5WvCSVN51UuZpaMeSHr++eeXJX4P7pUJ6YU1KKStAu4N48GSkEznGTEDCkG4IxgFoAxu1FkwD5c9+6EoUdRa0YXNCC4dHyv1eWkfD3XPQyGFST4RbrWAdEnCOyoTBZQ/N3nNR+mUcxg+6QP/WMyUY1ieukxIEsJrC6SyUup+8NnPfnZZ1LGYorwIE5InHe4GInl+//vf744//vjurW99axnQMgAok/O0dcP4sCQk03E6GpAtyhwloBgWDlgwq4iWnfkTSKfXJKN0vt3uc9PPeMYzusc85jFloSD3XSCfYV61QPIY5leHSTpzRV1OUH+gxCFs3JzXeUPydZSvOmk/6YYE0nGfaVHHcr+psUUdCz7ySRogbuK557I4Y4n/jDPOKIMZ96SpHPJJfzUsHEtCsiipjo6i6EQdS4H4ufc64ogjyvYo7qZIjolPAZIGUhq5fQveggCCrbvuulMEtnpIWYStJcqUdEG6UIcRXx7xU1bpzhXSEJ44ly4oU/zygBjq8gRxy1G7OVcucVM/9c5nx5/whCeUgYalmw7S0EZmDlYdEc1jCg+tU1cQjjSMB0tCMiNrpiJIpUN1NqHA9tv55rxnUlE84bLgQaFIyINgu+++e7fffvuV78JTWorFH0yLMh2Tl7wpJ4k1qREFdrSYAhYGlE1YZZqv0klPfHGVGTFYEc+v5KHM0sxgMxOkIX7aLu0hvqmto+/xv/KVr5yaOgovj+nA3WLQl770pTJt9D1/bQPKKA/xG8aDJXlORkmiSDrQMjIlgQsuuKB76UtfWt4B08HCEf4UMAolDdf3vve9y7I860VRkIbS8CPOQ6bplEzadXmkHQvofbTPf/7z3cc+9rGyLemTn/xkeXQgrHKnXCD8mp6TIYM8iHDKIg8Ww32QKZpnWKZ3qV/SDepr5ymvI1IZRHKvJo8MAsimPJ4x/vjHPy5tIoyyQNJVHm4GMufCmH6m7YblabjmWFKSUYYojI688MILy/tQdnJkN0OUCRIHWKl73vOe3d///d93D37wg4siRYEdxY0iRUkiIK0QERLHtBSxTj311LIg4HUZ94Tf+MY3yntqFDBlrokmD6t9T3ziE8vuEQrtn1i+/e1vTym1sARcqyOiWXyQ/uc+97nyLzQIwxIjbfJK/NQh6eQ8ZQjUhyC4B9mmkeqqXHV6Q6ifQc8Ad9vb3nbqobf0xVE29Ya6TM4dScPMWFKS6SznjkZ+in3kkUeWUT2KEOLEKulEymep2hTRdMgyNnf+YBTPdeJEoZJuysBPeBaK5bGaqRynn356IZdtW4iQvZE1xA3kg/gsWUhm+mWZHJJfkDKZKkpf/U2P7ckUV3nkqe4IF8UWJ22h3Gk/wi91StlcI78y2eEhPztlYukSzpHVckR+01jwnNEMIfk6KlPygjqNnDesGUtuyZzrVCuJpmS2LelESpAOjSWgSO4NNt988+7JT35yt8suu0zdl0XEI+JFMUF8/hQlysKfMpmiehdN/m7+KTurZeokTpTK+UygjDvvvHOxHEhjysuSiZv4JMQPcq6MCIeY4iqXsqYu2gERlEsauUflJ41hPomrPRDVzhBiwzBLxT9hxdO2wisHi47wnjeqDz/h094hqbzTNwH/hhnQN/aSoO+w8v9bvaKM+mnSaMcdd5z6ny/FqKVXqFFvvcr/i/UWbHTIIYeU+P3UZer/taTl2jFuv//970e9skyFS36R3mKODj300NGDHvSg8j9f8umVqJShn2YVt5SHX6/kxZ1bysrNsVf+0frrrz/qrd+oV+DRGWecMXrCE55Qyiwd8YQRltuwjkSa8uHvGPdNN9109KpXvWr0hS98Yap+/ZSu1C91z3k/aIx6C1jOSW+5rvafa9qjnwKPtthii1Ie+TjKRxnlTdSL233uc59Rb91L+smDONeGaVduzknDzFgSSwZ9XmX6ZUpkH50l+yyA9J18tREZ+k4sq2QeMnsGZETtFXbKKvXKMhWvV4ByzZ8byMs5N9bCIsbrX//6sg/SlFA+plUZ4ZOWeOBcGfg5Qo78hHdfuNNOO5WRP9NFCx/i1PHkpXwRcR35KwOwFMKxIKbPrJpVV9M990rqz6pB0gDWDuSnrklXGQloR+FZa9NSYYRPWwM3aQnjYT4L6N83tW3aVbrEtbTFjzSsGUtCMgqkc0wTs7jgOU0UGnSyztKZOlF426Q8C7PhN4pFOcTTycIBN35RMP4U0rlpmAfcvoWBBAinPOILl2mQa+GjmJQ9Ss1d2sCfUEiKaAvXeuut1/3sZz8r0zJTvyh7kDiRuKmvtFN+ixbK01uMQi4KbwpnKmpBAiGFE1f6ade0GzfnSbu+RhjnVlCVVV51fXOOVAYepLbaiHAgbsoakkFdz4bpsSQk0yE6zuhsk2q+Q8E9xAlhuLlht/Pcy5U2+PKrFTcd7Mi9ViwiPfcYXpPx3QsfnLFBlnvCUlCCSNykXStllFn6dlGwBpTO/aHNuTbr9lOw8vqMe7Ok5X+khfM6C0vn3ihppsxR6OTpXBhSKzGiIQWiWfpHbGVBAOGSnjQyICBo0oXkJx7hb0UTmTJY1XmD2QZ3FtrrOWm3WmB4bJgeS/LH7LKwXG8l8c1vfvPUCJwO1uGURGdSSi9ZvvGNbyy7F1gUCkPpxUknUxDh+XPPUjMFtcvcZwo84LasziLIM8oprjjSpbh1usokDUvgyG6VDsGQBoFuf/vbT21fkiYrBpTXNWF5kMJeTB/8ufjii8tmZ+UgFl8MMiB/cZRLeeSfMsUdlMnAY1cHYisXa5Q2zKCgHbRlrqXjWvmcs+x5AK3dE9dRfsognNmDldzXvva1xZopU/pAuAwE4oXQDWtA31CLjr6DR701GfUKOuo7rNxo92Qa9dOfcvNPFKXvrLLQ0d+z/SnmH/98nfQdW/4AvSfI1A03N8deYUf9NHDUk2vUK/Ho1FNPHW222WYlD+kORf690pQbf9e9wpTFANe99Sl/jG7h4WMf+9iov9eauuF3lGddHu6OvcJOlTVlzLV4vTUanXTSSaN999139JCHPGTUTzVL+ZRF/v0AUNomZbR4QpxrHwtByqxeb3rTm8qChjLI10KPPBzll+u6jMrk2h/Of/SjHx31JC15qzORh3L0VnlqgWTjjTce9QNVadvURxrSzjlpmBlLMl00TfQsyuKDEdwo2HdSGUmBNerLUu5x3IN59uRZGHAXFsQzataWqO/wMqJLw+LDcccdV14DMSVNPGmAUReSpmPOb3e723Xbb799t/fee5fFFtNBU1UWiyUQV369sk1ZHeWJO5GWshnxnQsnbWFYA9bQdNPb2j2Ri9W2+GNqqx7i1OUTP27Sdc1Ks44sogUR6SoHpF3lT1I2afOTFnd1Es/9o0UW4dRRHsQ1Ec/9mxdFWXV+PamKVQPpJWzDmrFgkkUh0tjOic4F0xfblKzqmT7ppHQ2ERZJuD/sYQ8rOyjcB8SNYkGUpkatUNK2qGKBw44KCsE/ihA4p3CJZwroFRnPuxDcqzKmShSJhEjSciQhFYlbLXGvj/KSnikrhZWHTwv4RAKlRzb3Xwmr3HXZubvWJu6Z1Jef8lsU4U8SNvFgmKZyILyH1LZ4ITkgffqHaEN+BiDltfDCXVrSd+5Y59Xw5xiLJdPYgXMKCRpfR1pNdI+EcEE6J8pjsQDB7CindEknYRyH1wnjHocF85q9h8FRFH5GaEoRsiKv+O65LGAgl9dFLGKwXHaX8Bd+mFd9TYJcD/2H1+AacZUD2ZDEKzvusSg/olFuZRZWviSWSDqOLJCwyisuoqV9Eifh1UVa4Nq5xRqWilVkrRI2eUqLKAvyhWix6nX6pGHNWBDJNDJo5HRwOkDHOnqVgiWz8BHFTXigPDrSbg7KrjN1dEhB2TIKI0+tLNxYAN+uOPTQQ7uvfvWrxZ+fNJ1Tijo9o7GFC9M101Iks7xt+kTxQbqpT9Lj5kjGAellGodorBrrws1gpPyx5KkzxIrwM2Vk1QxKiJppNzjmPHWXTtKSh0UbCzIep0hHnogegsnHUVgDkHYzMHBP+46zTVYrFkwyks5IB3LTsaYa3hE755xzph48p+PBNSUzGvtIjKkaRU+nOSbNuNVWiUKylL7FaGuU+z3KJ01hojAUghvCGfXtgfRnDVtttVVxE64uuzjALYqU4ziRAUCZlYE1t6KnDKaDeTucJVEH4cF5Bh73odoZYazGZqVWfflLW5tqK0g8YP24y8s9rPoReToKqy1YTZbfAGggED9lIA0zYyyWDGolTEfZ3W5/YDqQIoUgFEEHUSDTRFYsUx7u0pN+FF58bsBNOkbgQw45pOxD5MZf50dJHLlROGna/Lr//vt3O+64Y3kGJIx4yUd451GeYZ3GCfkgRMgvfw/r3bP5tADrxrpYNEIU7aR8GTBM95xLBxk9MmANWTTtnDo5Ci+vtCF3eUpXOgZAm6WRkdXiD8KLH3h8YaM2N2VJGzXMjLEsfOgsDV4rJIV573vfW772qxN1Rjo+0KlG7+c///llFKZgtXLXnZ3ONPK6trjhHgyJM9VRDpCP8JQLKJL7Lx/ncTTlCYRLfvU5SCfCfdyQZuqTslo9NKVlcbMA4+GxcBRbuJDGdaaIrJmH154xakN+STf9g1jcUldthryu3dfasSJe2iDtLw39GWtp5TdkX4x2WW1YUAvpCNDJORIKYAri1RFKoyO410oCWXywrJ3OBuEgygBxcy1N5LWgIp8QrCalc0Ih3H8985nP7LbccstiLTMgEOVKPpG4i++4GJCHchBIOZDKUTm9oPqUpzylWN6s7IG2UF+kSTwDmcUl7+axaklbfaYbBIGf/Fh4C051GyeMePKIVXXfy08YWKz2WU1YEMnSwHWncPNWrs4wTTQCQhRWp1EO4kbaMyNkQzz+JGQRFlxTgORnEy6F8uKjfCkRP+VI53NnKb3omUUVeUiL1OVNfhD/uNUKNU6krrEGKZP7U/V2bUED0Z71rGeVowFDHPVNXZ2HdHaa+Bsl7c4t/o7SFpd76hZ36XqU4DUXbSYc8EubcbNzxf5Pg2hN2oaZMRaSIUwNI6mv/xr90qnC6lTXOsfI7Eaa8rhOhyUsOLqOG4VhxXxlyVvFplBRFKAQRmZQJvcovh5sMYGlJCmDuNIVB5IP4S8/6Qof/5RrXKgVvi67fCKm0BZofJHL/ZBrZRKesoN0WHNHswcLTQjBjZhSxiIlvxrSMjVlMRE77aD+qbMwHhnkjfG6zxpmxoJIls4FSpsOsRrlRjodr8N0EgVBFO4WHnyPwg0+iKvThAtpheVOQYh7Di95mipSIm7SF4ZQOuUwGvN77nOfWx5wCwNJiz+hrNwcI/yVgbgG5bcgIOw4UectD2UH7aAcJIrOElsg8mcZ3BI2ZQbtZSDxzNBApMzaPBAOkRNeHUE8FhTJ3K/Kj6RMKadz03OzlLgL0zAzFkQynaWjNHiU0qsk5u6k7lCKnpFXp1qu9716oDQhY5DzKKEwjv58wvtg/HVyjYSTr+1RtkYhM6sJ/HJMekO36UQ4pHQ+Tmib5OE8g0vyjPAzwBgwbP1idYKUKe2hL0wbDXIGJKjbtg6fo3isnUHPtNECh7LEsoojDf2mfz2XdBswXR80/DkWRLJaETQ2MaWw8me1Kx0JOoq/oymJ+b8HnPFLGnUcblEKSuZZmL9RMh1NB2c0BtfSRi5TRMvZyCGMdCJQX8dtTeAfQowL0qrrl+vAdZ0fEnhobupokcK1emkHkrSQwfNC+xKtFiKDdgFH/pC0a6JbhWUpkUyaddj0jX41ZTRtd510GtaMBZEsnaejjHIa3Q4CS878uMGwIyx4ZPOtcPylAUmTW4ins42g/nzcdIVF5E7Ei6JQOq+leJPa/Vg9VZpUqKN2ZI3V00qgAUT9DCDaRpiQLO3lHTTv0GkvGPaB65BEXOfgvg+Zkw7/pAtIawOAfjbtrweGhumxYJKRdJhOsQPBVBGGnSSMo2ctSGY0DhG567AoCwkyBbJFywiaPEGaIZn7CR87zf7H1aAA6qodQwgvgtpn6buT2i9h0iapsxkFS+b9MfGh9ofcMwfS8DglfSO8tk36II6H31YwLWw1zI6xkAx0hmkKkpEgYUhGS3N/oyXEDXQqCfhRCo8ETFHcY7BiLJZ7Bnnq9MQxynskIO3VQDBQD4sZsd5gyd3Lm+oZMoSILF6mkfrBvlFTbe1Ut3UNeSSO+z2rvu5lM3glnnDc5KUvLHClTA1rxtg0kdL7SIsd3Va1oB4FdZYw5v3IYEeDTuNWj6Y6lEIAC8bPSqIVRVMVaQILGCsoXB5se/BMYWqyTjJSD3VKW5oGmxY/9rGPnRqstCW/kMk1q+/NcNO79EkNaQoXST8gGWsmvbRx2jSEQzK7RBpmx4JIptHT8I5GznzW2rWOC1wjlA2mFCQrfkgjfuKA80DHS9eyMXcifPK0AsbNQoqbdo8EklbSm2SkLeqBQ7uyYFYbtad25cYfyRLH4OOZllkAa8a9HtDSP2kv4I9g7pvTLyBswgtrccsMo06vYXosmGSQhmZxdGo6fEgeimKqaLojjHjxg4RNZyKg7UJu4knSJOBamhYAbKq1D9L5aoN2iZIT19rGy63+7J0VTxht6pxoJ9NMuzTcP8UtSNtzd55rb6hbma2JnTRBGvrZKm929DSsGQsmWToBrDhpeNAhmWokDMVABlPGmiwhFQgrHGVxtDpmukNJXKejk7drSuaG3agOSS9hJx3qQdQr9dYWFnqsBrI82pJ7wqTuLBuS5bHHsG2SXtKXrkHQPZkH1IgG+jKDonP33xZATEkbZsaCSBak48zRWR6dqdMcdZqOEsa0xrQuW4OITuMvfDpePCOkzjRVRDThEj5xCCWiZEZ093n85LNaUNc7bRQ39VfvvOOFBNk6Bty0o2dmVmezaBRo5yAEIqaiNihbyfQyqz4MQcWPtbSC2Ug2OxZMsnSM51hGNiSDKLoOQQRHUzk31fFL55Gko/OAsgjncwKeuzmXjjggPaLTvd6BYK4pErgfqZVo0hFygXq5Ngh5x8s0mdUJqRIWKbSbNjEbYM34EUibk7QriOeBtCljSCSM/PQBf9fuv/W78vAjq6nNx4UFkSyd5Wj6QHRCjXQqMlAEUztkS0dBOjoQ3rUVMYrhBjuKRRKGSAdxjbjOCdTprwbUdQ/Uz/NAiz2md6l76i28djP4IIQBsE4j4RwjuTalZ8mEj3uQa0v4Mz0rS5nrPK+NWLAl04A60nYbI2ZGsmHDWgVEMERzPuw4iFvSRC5idKYo8ath6olklIKSGZGFcZwuj0lF6l3XyTlLxYqzOq7j7yiOdtOWuX8att+aYPU3j1nEr+Nxc61vapLV+c81n2sDFmzJSAiBDCHZEIjlhjr3Y4kH03UIN3N+93n1Dvg6LCIhrnsySiHdKEXd4asB6l2LOqb9MrWLe8KAo3awKKWP5orakiWfIG0rPYMraPdhew/LcW3Fgi0ZaECjpPugIdLwSFZvdYoy1B2TjghZspBirj8dpOlhLPIa0ZNe8lhNHTtUYBZKu6ijRQo7NWqC1XU3GBmwECJtMxvcE1u9zAxC/ilD2lh6bhGSV8LUecPw+tqGsZBMwyKD+7G6oR1DGPdkRkdumcLUGHaEONLMQkbSqcNZBcvzHOlNR9zVgrRrLWkL7cqiTwfhwCBopjFXGMCkGyQdCPH0zWpbYFoMLIhkOjkdnUUPnYEMQ4VnaUKyxKk7LuCnE/kZKaezjgFFMFUK+ZIurJaOVyd1qdvKOetkcHFuCs7quI5/wjtqTwQjw4WpNUF/SbfOh6R/lElaJH09ROKQazMWTLI0sG07IUc6o4bO0mlp8LrxayVyToBS1FPFpJmw0sy92DC/hFkNmK5uJMpvtVY7IEYNfhnw9E0sz1wgbYOYNk5bphyORJr6x3FYxuH1tRljIRnowJpkQ+gsnRbUHZd7i2FnJk2o063PpQtxI0krYVYDUhd1S/tA6opgCFXX2Tm3nIcUc4HwITGkn5MepCz8hmUCcWu5tmIs00USogxRN3hNiBp13LpD0rF1eOc6Op09zDNlWU1Iu4H61UqNOEMlD+q2jEVKm84HST9tH7hOeWaCMNOV79qCBZFMx+U+II2vwWN9amjkKH86JQpgASPxHTPtqUnJXTz5OU+nR3kc6zRWG9z7qLO6EXXWzqkrf+2bDdLag2ThSNi001yQNhc+BMl1wD1SQ1zS8EeMRRs1KGLogGEDZxR0zE133EDYYceFhAiVNBOeH4Wp0xySmjLUeUwy6rYcIm2tnggWcZ32CbSJ9sygOBvq+CnDME3u0iUNa8bYWscIWpMlSIcjglHVea04taJE0pGe1dT3cSFPSOZYP0dLXOklzGpE6pW2s5hhkUidU++0RWAQNGMYLo6sCdKRriPIJ20f6A99ToZESxlS1mszxkYyhMgoOV3DIoIVSNAhIVagA6MUcc8WrPhJPx1HKIGHrDXJErc+Xw0Ioaarl3Y12AC/um21NbGyW/fRbNCmWd1NnpH0H8ISabqGhMl5EP9rI8ZCMo3pGZjGHo52QUgm7HAKOETIZFuP0VeaCVt3FsvoNZjcr9R+zldTx6bNgrSHI4LZSB3/EMt14hmwkGyubWIA8+xTX2bwC2K9DIAkeU2HlPPajAWRTMNqYNCJM01FkMxmUh2WDqk7IOnw04FgZ3l2HQibe7oAybwnlSljlEseyjJXhZoEpC5pc0eCBHbD12+kg/bK4CSMh/b1Do7ZEJIlvRrcpO0WIW9U1JguzrUZCyYZaGT757L5t0bC6DR7EVmzdD5EGYSLAMWwVSibiiFxEgaxbBfyrlQ2qkIsacJNMtI+UNcnbaVdEcwG4LSP8GnjxPVJAXtHcz0b9BPyDi0oSJd4vchDcP5xC4Zxrs1YEMlAY+oIJNPgsUJpZA3vnDKY0iAFckwH4RLPUXrZABy/dGTO7dD35aR6h/mQ6JOO1LkmGzfivsmU2RvkrqdrI0cfxlnT/sbpYNbhHTRYk4XU54hWu0HCOub82oyxkcx0sd7aM1R0Uz2WLCSbrgNyHcVwb2bK6N5MHtPdtLNavsYk7XS0sI7p9NUC9amVWTuaKvsMX/5cPYQgzon28GInUgzbfE0wM5Cm/IZx5MPNFJR1jFsE5prPtQELIpkGTScgmGkdktUjX4AMpiDIgHD8p+sI6eX+CnQkkrmuV7ECZfA1W1YyCyAgjXT6UCYNaYsg9VBfq6teyKynyyAOQTD3Yl6FYXXq9ktb1G2StKUnbf0xHaTLMkqzYWYsiGQ6IPc/CGZU0+hZdg/SccLmn/bjH6sWCGNqmXMf3vHmc8gnnSiQeBTNN0D8GYV7k1g7cZNvykkmEWmf1DmwWuh/4PLvl6Cudb2RwZe8zAjqhSntFiRsoJ1Nv5EXar8aSGYGI2/tLq+6fA1/xIJIplGj1BrXaGlKAvXULuGsBvqXTPcROpbS8wu4CWfZPiTxJaZ8KCadyI/C5UG1+zLffUdgflbFaosaUiYv6ZJJgHJSelAXQum1oUFFe+ZrXuo3JITVP3/jW78SBMPVV+fy0X6m9KaKZgeQdgxyjriZgtYSTOd2bcSCSJYGTMf5MrDOjFIEwugoJGNxkIAyCJcOdC0d1yQjLXIh2m1ve9sSvu6wnIvnvix/6UPZSMqV/B3r+PwTZqUiZQ+0U9rKv42y4sOP2WQwAtN4JPO+GdRtknScO5pBcLPggbiInHZLnPSPdA2qSbdhzVgQyUDn6BjwrQ2jm9GQBAmDOBdeeGH5jJhz7ojjmHA5B51KvP3sI57CUiDWLnHT8b4w7COelM7ozU8Zoki1DDGd20pB6qeM6pM6sN6nn356+Wpz7Q7aRxyW3sCXD8pKCxIu8eLuWjzPHq1WartYx4STtqOFFAOqWUfDzFgwySAkQwZL7jpGhwX8XTsiGMVgzXQoZQHnIIxOzF5I1zrUH/u57+OWqU4IquOl52+C/F8yi5lRGYQhrh0hipXrlY4MGsptgPJvo+7HtCekfqAthfPowx/TszgIxy1+NdIGmWIbsPSRcNo27cYv/eSjqqzYpLTfcmLBJNMRFB98QszzGKuBwD1+OkNYyu/+ycNTqG/A+Q8VQAdHWfwFrk5OWlArDeU499xzy58hUJh6y484NcmCKOYkQFuqj6ncYYcd1l100UVTgxSkHbipFyvmTym0Q+KCcPwdc05YJWTWjvonBAu0HaJz90FZ/dIwOxZEsnROOkrjszq+ags6JUqdDnXtHyCNlMJbIYt/DeF0OOWgJKYm/vjOtIelQk5Kg0zO5e8RgYWA973vfcWyQdKtyVhDvJRxJSPlNJU766yzpv53LKjrJpz28v/PBiftzB9BMsMQJqRznn70OMQOGrs9tGsGwQyW+kSbs2Tulyeh7ZYbC7ZkkA7U4KaM/mqVm+sI5Oi+jHiQqsNgGE566XjXpooPfOADy7/CuOmGEKeO56b9tNNO6z75yU+WFTKWM/7TEW14vVKhnEhlgPK3vpbXKTz31CH1dG1F1v+15QOldRuRmmDCI5E2939mLGTaTR9AwrN2HqtYjMp2t4aZsWCS1R1M3JP5u9pMUQJ+ILz7CFO6LD3ryHQmJM10LD/3aP488H73u1+5xwhCbhDPipjFj6OPPrrct7BoUcYoWwSUMfmtRCinOiqnerFiiBAM68NqsTAWiu5973uXa4i/ujrPMe2nbcwQ/PF9pvIB/8T3HJSF9IzMALmS226lYEEk0zHprJxrfNNF92WZpgTCURZKj2RIgECu+Qmb8DowCsLNNQvmHgPZTDPFzXQmhJSOe5JTTz213J+ZXgnDPQoVkW6IJy3HIG5D99kgbC01XNdprknqPB21j4HJFPGMM84o1jptmzjg2uBmJsGKaSdxQZp1fSMpD8vluZs/+DBVFJYEyQOB3Rvri6TVMDMWbMnSUTpdo7tnMpWwywDSsSAsRUcYf+dj1KytTDqtVgzgLoyR1t/V+l9oRKZQQZRF/JTp4IMP7j7ykY9MTX1yD4PoKRPkHk+YQDm5KUvKMVekDENIR3oRcJRX4NogEX/l1LbHHnts94EPfKDcc0pHmdPmIUPquNNOO5V2cp10AuGJ+Pwz47DDw8qsaWjaa7o6WFHcaqut2lRxHlgwyXSwTqqhI9xw15/ljiKATtSZHh5bdheGMnCPYoNOFi+CnBTyIQ95SOlobpQkozp/00qgRPZJWgQ58MADy0PqvLRISeVjf570pCGu/LiDOnFzjPt0SjcdUl7h5UWcq6eyEulydyTKgVzipQ6mvu6P3vve93aHHnpoeXblnihtWoOb+vnDdlNFg5308xxL+ikLkYdycCfa4vjjjy/WjH/qkLYVxmriJptsUra5xZ00zIwFkaxWupxrdFNGz7VYNApMASgSP53rmtJaYbRrQVzCXzgdCNwQTgfzi7sb7wc/+MFlSiQtSoEQwoQk3MW3HH3KKaeUJW9KKy2jPYVO2eRRK5Y0hEs6ZK5IGgRSN+CW9Opw8lMGdYi//A1EnoW9+93vLqt+iCCc9BImaSOYRaEnPvGJ5Z44A0ryqvPMOTi6b3W/58/vnccPhE3feSRg6R6BU686bMP0uO4/9fjT+YKQBnfUKUZQ83sjcbbnUAp+6SCKDRl5o/TScRQmSiUeN0A29wSOF1xwQVmlTN7CA4UFbrYd5eEqK0sB5UVioaSdvF1DrocyExI3GMblnzCutUHaQX4hu8HhzDPPLNbFNC7hUlZwrQ20jVXdHXbYoYgVxQw6dV4EUi91T14nn3xy2UEiLUg5+QuvrcwepC+vlDNlaVgzFkSydBqkQzQ+6BQbTHMjzZ8foiWeKZ2R02qhJedMcSAd6LrubEdEQhbKZErouQ7rJG1hoiiUiBKKb8XsM5/5TNnQautX3oMSJuROXrWCEkjec4F06vJOB2WNJcoAol7axGKNhRsrpFYTpaeMSVf4lFX9LDJtvfXW3TOe8Yyyx5Nb8pVmygLixE/dWXQW7IgjjihTRTMNaScvR3H10cMf/vBu2223LWUB7km3Yc0YiyVLxxGKo2N0tA7zXMdSvQ5N2Fqxch9maZ7iiw9JL+HEqTvUufCbbrppua+z4kZhEMQyM+spDiWTpvIgtMUWeXpYq3zuM+ShDOLwy32MetT1mSuioEQZQDqulTvuFhuSl2vxrCK+/vWvL/dhFjmEVSfkg6TBLXE8P3z2s59diMZNHRJW/ZU9bcct+au3aeKHPvShMqWWJkiTn+vU30KKzQDaO+2ZujTMjLGTLNBJrIYHwqZqXgA0AqaDc+NNeVg636DIplNxdSwk3Tr95KeTpWP3gdGfhChRQkcSxVMGjw8sulBA941RWmkR1/J3VBaSvOeCurzKIK2kl3Qc5cUCOzdInHjiid1LXvKS7vOf/3yph/YRTzlBGYWl5Lk2hdt1112LlUn7EnlFlD9x+KUsBpYPf/jDZarI0qecwsjbUd7SffzjH18WnAxKqUekYWYsiGQUKAqfxq7PKYHONZ1z467DonQ6yjk3RGOFkMzeR8onDUrgmE4NnEuXv7AsGnHv5f6COwshDJGfvCiLIwVmMYT16o0wlEqcLE1zkw8FFSdlmQsSzrGub9zVGem5KYfdKVZBTzjhhHKPmQWOlDuDjjI6B3G32GKL7mlPe1pZBMpm3QwIznMN3OoySM9Dbfd83l5QP26QNNIG8nnc4x5XrFgsL0gfkmbD9FgwySCdV1+DTrJAwZrZRmUZHaIA6VRkZM2Mkm6qWTMKRdGklfQC1/ykjziu3ZeYJiKs6WmUNEJxhBPHtXDuQbzomVf4Uz5Ek7/wKSvMVZkSvoa0xKfMpq3a5Oyzz+4+/vGPl6kaohmMlK1uH0fxMkBwc+9qseipT31qsS522Ui/zgccCUKrf9IDi0WHH354WVxhRaGOlzLoP5byAQ94QLkv46cOIWLCN6wZYyFZGlknQjqcolMICk2JKVE6L3GFpUBGb/GNyJ7DxKKEHMBfXkR8xygPi2aJ2WKI50kWXeq8pIFguQ6cI5rdJyybeJSSZXXkL48oOcykVMLEAiSc8pkWIrM28HUtiw2U3HTNg3nESxkd5Zm40rQi6ly7sCh77LFHWa5HAoj1T545FxcppCk+0R+s2Lve9a5yTyZPSFuKQ1gtCynPfe5zy2MBefCPVZcmaZgZCyJZ3alQNzr3WANbcSispWhTNR2VMKDTdCoi6nDbgdyj5R4kEKa+dp48EZoSGG2RlDUzWiNLrBolkkaQtJRTOPeOFkZswM1n5sSh4I6xnnUa4DrK6aiuUUb1tQLqHlC6Rx11VHlmZ5pmMJBeCCIeOFcmkKb6IQaCef749Kc/vVgX8cThr3whqPgpj2vtCMKAfF/72tdOTU1BmAwqzuVvdmCx45GPfGSZXQB/+Ro0pJf8GtaM6/SNdnWNWQToPEpm5LRUTGF0jqwpg3NHQC6d+sY3vrFYQR0onKNwUaookQ6HenSl2J7PHXDAAd0nPvGJMh3ixq9WwCEoTaafSdsAwTq6X7RVzLlpraOH7kZ76alThOJaSLDAwlIoCyvGXTmECSGG5ZAn/+RP4cWTj90cT3nKU8rnBKLgyistZTAYiIsg/KVhYIgVFo4lRfB//dd/LUThLywJyaXLQnrwrB885JZmyhzRlpGGNWNJSCYLVsGq2Qte8IJiMSgD6CCdF1AIUxSj9e67715GUPHTmTmnVETnu6YgrilLRmXTMPc8pmR2lmTaFAV0DSyEcwrHH5IXSI8Ch1QEAUjSqkXeiMGSWowxFUwdlTHn0pWnONKRN3+IEsvDYtAuu+xS9myy0gYf7nUZnROQhviEf+qE+J6/vf3tby8vzg7jihfS3vWudy33fHvuuWepu7AJr8zydy1e0m+YHmNZwp8NOgIZdBbFcw/kGD/KFsXQcZTSdM90hcWwoMFd50snnRrlqM9zLawFAeJRgrwph7QdhUs6jlFuyp7zwLXppDK7Z8tjCfdwLIP6EG6mYoT1tJDCcskviKLKh0DclCnnyst6WqJHsO23377cF+UeTFjxUw/n4mYgIWkLR2Q3XWfFDHYhU/IDbQsGE287PPnJTy5Wu86jTjNx+TWsGUtCMp1BUXUSxbHIYGWP4vJLh+s4Qindn1FquzNMIVkPYXSoOOl4CEFDQNeUTX4UhmW035EFYGUofqZGID9pCh9llRekTMnPMe45RkDcunx1GWu/Oo5j8hRemT3722abbcrihq1MHlFoJ3VURvVLGikX0aapB8iXO2J98IMfLKuYCJdpLgFhpK8cpqOmpjYIGJSSZ8rvOu1Tt0nD9FgSkqUzWSwkoyBGew+Pucey6EDXzgkrAYhm5TAWT3xhdbxwNUFBxwvrKCylMOViFTwiENdihCld4grLPWlzcyQpv7CO8Y8y13kHSTNKOPSXRtJTVtMv5WS1kct0eeeddy4vSMpDuKTpGEVPGYFfDeHEU9c3vOEN5bUf94biIo88QZjA7MHKpftiVpMfQkrLwESQkbtyDfNs+HMs2XQxCglWAE27LAxQdEqSzorSEMqAjEZe5MjuDO5JKwoiD0qHJI7CgHDxE1c6bugtYljUYDEtAIgnLWFYPIqlDOKBNEIEYeInDkmZU1fn3BPGNXdxhSFRVoOMafF2223X6Q4rh8ilfOJpI3mLnzRBWQg3wj9u0iRmA694xSvKC58IBvIWHhzlkfNnPetZxXJmMNQWypz2U47ET10aZsaSkSxKl46hxJSAtTI68osiRYmc86McSGnKJ56RX3rii1crr6Nr59IRznncxLXQwTp6g9iSuM3JpmOUyqgvXsgaBYTUAZLPdIoWIibPGklPOUwLva7DYlnkedSjHlXqyJrUVibTRG0RZZe2tFynfikLKwUGsYMOOqhsmzJFlpY2E4aVci4Naacsnol5hCJPZZRuVmaFA3nCdHVv+HMs6XQRdKyO89BZR1ogsGgAOqxW5JCJ0iCZEd2IbyGDEvKrFY5E4ZKWI4lCRCktLFi5NA01laTcxP0bAspbOWLhkh4ZonYXDupw4sufIlsd9Pq++x2LGXa127XBjZXNIBKk7IFzIv3k5ZjyOcrPyqptWu7DLNRwU/eURRupm/AGHYsqe++9dyGaKSt34RIGwRxrgkkr5w1rxpIs4esY2egMo3FGevdkltgPOeSQshgynDqGPDrTuamLlTaLAd7QpQxRyHQ+RagF6ioiOcgj+fAX34idXRle0bEVzCon68bPPkPlj8TaQdJTTmUygCAyi6HcyorQrAQym/qyoJl+DcscBXYtj9o/5ZWf69qiKxML5nMFxx13XNkzKnzaUfi0qzTkr0z2Jr785S8vZU8+wnvUgvjyEp5b6hqrGAvXMD2WhGS1wkA6Cyxz27tnWmP0jaXTibEiuQ5B3Jj7joX7FlYnSgTycC5OjYSJAgXc5FHHT1wKxoIimns3D9QRTpk993PMg+MQi7C0pp+sLmKxjo6WwxGPUia/5A9R3ukwHdGi5I7xN1h5k9rzMA/B1UX60hUn+XITnhW3w940EfmlJWzyaVg4luxhNKEIw1GPkrIcHhi///3vLw9JQfiQKySgwNKgqKZbHpa6SafgLI0wRubkgaTiS4dflNK1o7TEk55wrqN8CSOOMrJcsTrCEH7SFXeomI7JO/Wo/cWTd6xEwJ3kHMQXVj1DUHVzHZgFeKPgla98ZbHCBgFhQLs5V/6kpRyu99lnn2633Xab+rvbtFHK37BwLNvCR5SJ0phOeWjsGY8pGQWh8BQiBBOPQlL2WBgPg1kT91amY/ylTaGiJCR5RdkpUghIUbkLX8chrvkpI4VMOSita+SMyJtbRBhxIXUgIaj6gbSlCdxS77oMwqeMSSth1MX00OKGDwaxXqytNhJe/aSpPOKpt6N8n/Oc53Q77rhjmbaqQ/JJvqRh4VgSkkGUrFYcnc+NUiKJaRaYnnn1BYSHxCdAuRCMUgmLqOJTKgqWUT7h5Sktwq0uR/xrAeHi75x70sj5ME6N5D1deOdR6OSTPEIoEvB3LQwRT/t9+ctfLi97WuTwZ4CsVAYQ6YhHkCp1sXr56Ec/ujwqsC8RwaQdggd1/g3XHEtCsigbRNGiVKBjKQGLZNWRRUMeVisKRwEC19JBNDtHTDc9S5OmETtWrVZIcep8SdJNeo5BwtTnylgrYV0Hxzp+IHyEP0kcbs6TDr+kX6etbLFAwjhXb6/LIJeptvtF/gYYR3FAG4F0uXlG6SVPz8OGf6nkmHYetkfDNceSkSwKko7TiZG4UQSLA1beTBtNexAtCsc6URrn3AjFZ9Hcy1kN5GeRgTvCOSZ9R/GlSZnknemicxA/R+G5D/3r/BM+SF5Q5wvCyjeibLVSp6zS5e6YMjhHII8zrMp62fJNb3pT+dCOJfqkUZcNpMnNkQWzyRjBPB/kVtdPW0g/5w3jwZKtLspG54HzWhkhSgX8hNlvv/3Kcx5KFQUIhIlCBtL3LMqODgsipkTu9YRBLmmkDCAP+UbJXBOoy5fyzBXDNHKcLg1l4x8BZVWeXINwBh6k8k6az7dxU35hiWsCrllzjxDcv7q2Vcsqoh32FkpYfOGVy5Rdfu6HxSMN48GSrS5ClMZ0xznlhigL5eKWm3S72k2HPPNx7+HeAdGEpzQgHvATRxoUy9TTV4w96PXqvIet8rSFCtnkIR3XzuXLP2UMpBlFlOcwDPeIcBCLFMQ/cYnrGuKmXvyds1zEuY29/q3GG83ahfWGWKqQzQohAomjTsRjDl+zsm0rX//VBmlvIry2QC7pEO4NC8eSkizQuRQpnRiiCBd3YXS8ezPfwnBz7wXM3JskvDBAaVxH2aTj/s7U0/M0Oxn8y4mppBE8iixOlIoESReETdlIkHJAfZ78Ie45Jg3Xylq3gTxDUFNldfdZOG9ru+fyJjNrlnI7psyuxWOR0nb2PrJarLotW9oipNRe8kw8om2VJ+Wv26PhmmNZSEYB0on8hsoSCWHswvAPLe95z3vKZwEomlU0/tOBotRERSrL1Hbh+wCNP6swjXSPYkVSOnV5onyuU66UJQo5RNzES/0iqQ9JOEdpKqdzCq5OpmtWVxEKwZDLC6d5i1nYECH1S3rcpIlIFjhMm30+wOfiso2trgMRHqQJ0hSGNIwHS0Ky+UCnEwoBlA9Mm+wI8fkChLPfMdOijM7Oo8jcpOM6bpDPCLjxN52MZbPKZg8fZcuqZpRNfPnnni5pDdPOkaImfqBsIUTSVT4rqabAyOXNZQ+UrRpajvcGAuKB9FI/cZUlbZNyJE8DiGmy7WeO2lIeysfSaZuGpcOKIxnFIRQeKCyESJ6J+UahBRGKaIQ3LQIKiwxDULyQNquVlM1Kpp0OthX5tqA9fEgHwkSJKW+tmMrET1rKJH1hKH4UnXvdtBQ8AgjmsUO+XEUQzAN2fiCtlFvdlEHa/NMuBgf5qLewLJjFDVNE00PxskxvCiqu+9WGpcOKtGQUKArlPAqFGPwpC+X0h3h2OtjxEOtDVKlWRoSJcqe6rqWXZ2pZLLET3uKAhRJ7+Vxnz6H0QhQiLZK0415D3ghgcHCPpayssBVTlpkFs4iBcKyWegzTcF3XQd0QKnVTBuRy3+WNZm9VI5a2MFgJL23xDQTNki0tVhzJFGdIigiwIJSH0rh3sU/Pqpvd/KZbFIh/FLBGFJLS1QqLPEABkc39C8J5HGC1DhEpK0V2REqkQ9KQWhohNevBwiIOMa318iRC5fmfa8RLmcBRuZQJ+KVs8uSfesnX0SBg+ps/RzQ4KKN42kp6ypp40lbPhqXDiiJZFCpK5to5UcwoDgWjPNwotAfRnhtZ3vZAGtlyLyNuCBWFFp+79LglLW61BeUHrAbyIR1iEUrvGKsgrQhr5B4oBFOWpBcJ6vKlK7hBHVZewrl2zGKOxxM2S1tBdb/JP/HTXkgGzuUhrYalw4oiGeWEjLQUs1ZCyDk/SkOpKDwr4R9kTCE9sM17YKZqqiietHIO4sYicHcuLUfEiFK6RjLWKWEJJF3HpOs64RxrJB44T5w6vbgF0lNf5EB0943e6vZFKRbMfaUyQgahYbsB0kGbLi4tVuR0MUdKQVFyDlkIgFqJECDKaPn7mGOOKXv63AeFTJQUkYn0hDc1dM0iijsTEBDElWbKBNIiMFM6CafswzS4IQBJvYVliVhE76c99KEPLauG/i5JecQXTvikmzYE1/UR6vOGxceKXPiI4rBoUYgUs74WjqLG8sUN4VgiS+CeMbFulv0tMAhfVxn5XBNKmuliykGCWmFrRU38pFuHg9ov4BdSRIRhiRLP0bSQ1bKg4bEDK2ZRw71i4gTOpQnqCfU1f3Fi9RqWBit24QOi7DmPUuUonPOEc06iUIhmocFKnns1q3mW/X0625vOppJIVecRiJ+86vwCbjX4B9JJ/BripB6QfOu0xGGxEMsnFqwUWuXccMMNy7SQVVMOIq2UWTzpxL0G95TFeZ1fw+JjxZFsCIqoiBl9o0w5j0JFYWOZXJMotekgy2Yq6RV9376wB9DmWUfWT3hTvTTJUCGH7vHjXstQyeMufMoD8mKFWSu7T5DI4oUdKd7zynM7jxBSF4JIrqWT+oJrfo7JI/lCjg1LixVPsoWAItaIwrFwViBZNmSzdcn7WRZPLKtbXmfl3KshAqmVl9REki5/xzRnHSbu7glZIuJ+ypTPg3TL8FYK7TMkyGahBaTbltwnG6uaZKmaI8IhDcWntMP7EvsjEc6uCw+67bzwuTrEY+XEdb8kHelFakhbuogBISQ3xGKlTPtYJ2LTMgtG3GeFlENrlGPDZGJVkyykCqFUdWiRuMVSEUSKBWPx8tDYoon7OG6mnhHhk2byMv0jlttN9WxCdu0hMWtmhdS9YMiXxRaQr/yBP2mWbLKxqklGYSk/RVXNCDdADmGi5Py4OUbpYwGRCcGE5+ZIhA/Ekbb0EAOZiPOQKgIpS51nrsE5SVkaJhOrfrqY6tWKHKXlhjBR7jr8MBwRBnIMhu7SdE6SJolb3Ov0k2/8Ei5hGiYXq5pkUV7iHGrypOp1EwwVO3Fr4tQyHYbEDRKeG0mYhJNPypxy1mVpmEys+nsyCmx6Vis4EkSZwZQuih63KP9MELZOBxKvJgzhlqmic27KUZcN4lej9m+YPKz66WKNKD6lJXOxEsKHlENCxBLNB8okLZAecCNJL9fyday3kjVMHlY1yYBCp4pDQvCzeEGJKbhwdXMkfO1ep1Gf8x/mFanJvKa0grjV4eYyGDSsXKx6ktXKGqUHbkjBWtSri0PU4YMhOZLHMH7ymy58jaF/w2pC1/1/OhhD6YN2K6MAAAAASUVORK5CYII=;" parent="1" vertex="1">
          <mxGeometry x="438" y="274" width="25.86" height="46" as="geometry" />
        </mxCell>
        <mxCell id="LpF5Ccz4zrVWc6uUfBFL-15" value="" style="shape=image;verticalLabelPosition=bottom;labelBackgroundColor=default;verticalAlign=top;aspect=fixed;imageAspect=0;image=data:image/png,iVBORw0KGgoAAAANSUhEUgAAAb8AAAHaCAYAAACQKkebAAAAAXNSR0IArs4c6QAAAARnQU1BAACxjwv8YQUAAAAJcEhZcwAADsMAAA7DAcdvqGQAAHD4SURBVHhe7Z0JuJXj+sZf/2M8VBpEMlRKlEqGIqWIQohkjJQiTShDZJ7nKdKASCljSJI0qZSUIY3SRImUuU6mc87f7/UtZ0t7t9c3D/fvuta19/p259h7rW+99/s+w/1ssWHDhv8aIYQQIiX88tu/ne8K5/+cr0IIIURmkPgJIYTIHBI/IYQQmUPiJ4QQInNI/IQQQmQOiZ8QQojMIfETQgiROSR+QgghMofETwghROaQ+AkhhMgcEj8hhBCZQ+InhBAic0j8hBBCZA6JnxBCiMwh8RNCCJE5JH5CCCEyh8RPCCFE5pD4CSGEyBwSPyGEEJlD4ieEECJzbLFhw4b/Ot8LIVLKv//9b/P7Z92sW7fO/Pzzz+ann34yP/74o/nhhx/+8li/fr3p1KmT2XHHHZ3/ZTZ46KGHzH/+8x9TsmRJU6JECfs19/jnP/9pttpqK7P99tvbx5Zbbmm22GIL538p4sgvv/3b+a5wJH5CpAhEbu3ateabb74xq1evNkuWLDGLFy82S5cuNZ9//rlZuXKl/dmvv/7q/C/+Cov8nDlzzJ577ulcyQbVq1c3n332mfPsr/zjH/+wIlixYkX74LXZa6+9zN5772123XVXU6ZMGbPTTjuZbbbZxvlfiKiR+AmRcv773/9aMVu0aJF59913zaRJk6zgrVmzxnz//ff25/kg8csPToII32677WYaNGhgGjZsaPbZZx8rkv/3f8oqRYXET4iUgZgRsuQk995775mRI0eaDz74wHz99dc2nOkViZ83OCWWLl3angxPOOEEK4b8f5cqVUqh0hCR+AmRAshFIXiEL1966SXTr18/e6oLAomf/5AjbN26tWnfvr2pXbu2zSkikiI4JH5CJJhffvnFfPHFF2bMmDHmiSeeMLNnz3Z+EhwSv2CpUKGCadeunWnZsqXNGW633XbOT4SfSPyESBiENRG90aNHmyeffNJMnDix0OKUIJD4hQMh0Dp16pg2bdqYtm3b2tOgwqL+URzxU0ZWiJhApeZjjz1mCyZYFMeOHRuq8InwYJPz4Ycfmssvv9xUrVrV9OjRw/zrX/9yfirCQOInRISwCNJfd//995vdd9/dXHzxxebLL7/Mu0pTJBf6LQcMGGArRi+44AKzatUqm+cVwSLxEyIiWORuu+02s//++5vevXubb7/9VqKXYTZs2GCGDBli6tatay688EIbfhbBIfETImQIbz344IOmSZMm5pZbbrFFLULkIBKACDZr1sxcdNFFdpMk/EfiJ0SIvPXWW+a4444z11xzjVmxYoVzVYi/891339kcMCI4aNAgmxMW/iHxEyJgCGXiuIJnJiXuM2bMML/99pvzUyEKh3sHxx5OgMcee6yZN2+e8oE+IfETIkAoZhg8eLA56KCDzFNPPeWLC4vIHpz6pkyZYi3UbrjhBhsqV37YGxI/IQICv016uLp06WK++uor52q8wGlk2223tcbNZcuWtU3YOJJkjZ133tl6dGJDxhSHuL4G9IDefffd5vjjj7c9oDoFukdN7kL4DAvShAkTzPnnn2/bFqIG82X8JnOek1hs7bvvvqZcuXLWYWTrrbe2DxrcmUyAEGRNAHmfsJCjrxKB4cFz8m7Yyn300Udm/vz51kScqlyKUqI+eSHSN954o+nYsaPdwIj/IYcXIUKExZBKzvvuu8/cddddoef1cAhBtJjFt8cee5gTTzzRnHzyyXbsDtd5yFPSPby/iCMPxG/8+PFm+PDh9oRPTpfrYZ/EeM9btGhhHn74YVO+fHm5xDhI/IQICRbG5cuX2yblqVOnOleDh7E5WGNxkmvUqJE5++yzrWekCBemajz//PPmtddes0UphLnDrM6kQf7xxx+3UyQ0SkniJ0RovPnmm+bcc8+1IbEwYIGrX7++6dChg2nVqtWfYS/t/KMjFwblKy0tiNGrr75qQ6hhQNiaFporrrjCuZJdJH5ChACLXK9evcz69eudK8FBODNX9o4dGgueiCec/DgREgno06ePHTacE8igIKxNkVXfvn0zvRGS+AkRICxkd955p7njjjsCbWFgQWvcuLF1g8H0mqIUhbaSA/cJ+d/PP//cPPDAA3Y8VZCnQe6N5s2bm2HDhmW2EEbiJ0RAsJjhyD9w4MDAihyoxMQN5tJLLzW1atXKXAVmGuFeYXQSzi1Dhw41q1evdn7iP/Xq1TMjRoywLSxZQ+InRACsW7fO9OzZ0/ovBgEl7Keccop1hGHmm0QvfSCCn376qb2HmNsYlL9rzZo1zYsvvpi5+YwSPyF8Zu3ataZr1662kMHv/A05msMPP9xcd911dtcu0Us/iODSpUvNvffea55++ulA5jdSCYzA0t+ZFSR+QvgIDc+cxkaOHOlc8Q8ayxlrdM4559hwp8gWiB6FMRROzZ071/eNFeYGL7zwgp1Yn4VCGImfED5BJecll1xi8zR+Qo8ejeg4deyyyy7OVZFVKJyiMrR///6+jzLi5Pfss8+aSpUqOVfSi8RPCB+gMg8zYaat+0mVKlWsTyNtC+rPEwVZsGCBueyyy6x/p5+nQJrgn3nmmdQXwRRH/FQvLUQR0Kv10EMP2d24XyB0Rx99tBkzZoyt5pTwiY0hT/fcc8/Znk5aW/yC0Co5a4q2so5OfkIUAsUIjCG6+OKLfevLoimdvA7tC0npwdr45JFEsU7q38A9+Prrr1snn++//9656g3+dhrh2dSl1SRBYU8hXMJiOWrUKOuV6ZfwEWqiWOaAAw5wrsSDgsLA95hzU9yDeTN/++9rhDVu5nHggQea/fff3/nXyYHfnYIPxhZhAL3DDjvYSRZMvMAInJFOBY0D4iaOOMVgVP7+++87V7zDqfL2229PpWGCxE8Il6xcudIcdthhvs3hq1y5sh1GWqZMmVgtrHiRvvfee2bmzJnmww8/tKN7aLymiZ+QL2JYUBzJe1544YXOs+TA34UXakF4H3DPoaWEwiOMBOirZPDwwQcfbO3j4gQjlvCP9avamFMfbjP0lKYNiZ8QLmFCwqxZs5xn3jj00ENtkQGnjqiFDyHDdJl8I16TCxcutPmf4vaXpUn8CgNBpN2EqkhE8Mgjj7TDY+MQpqYa9Oqrrzb9+vWzIVGvMNORjU/aKo0lfkK4ANuyRx55xJfFBY9FdtcMko0S3ESYMzhu3DjrMenWizQL4rcxnJB4/xo0aGDzvxgQRBUqZPPCqZwqYUKWfsyMRODZEMUt1OsFVXsKkQcsLISUHn30Uc/Cx+LYvn17e+KLSvgIaQ4YMMAu2vvtt5/1IcVNJEgT7jTCqZjw98svv2xPgfTLXXXVVdaj048NUj4gUIgx/30KVvwwRCDC0aNHj9D/lqiR+AnxOwgfwtCtWzfP4sACRW6G9ogoQmU0Rz/44IN2oaYx/4MPPvDlhCD+uE+WLFlipzNgRXfllVfa4bVhDq4F7rF27dpZWzSvAsjfRHTilVdeyZQASvyE+B0qHM8//3xbFegVhssSkgrbm5MKTcJhxxxzjD0ZkM8TwUFhEKcvejXZZCxatMj5SXjQsoAtHpWrXqCql40fp9msIPET4neef/55M336dOeZe4444gibWytVqpRzJXjYub/xxhu2cf766683n3zyib0mwoGQKCOKmjVrZgtRqMoMC4pzaFno0qWL5zzkN998Y3OaQZhrxxGJn8g8K1asMN27d3eeuYceuEGDBtk+sjAgREWotk2bNtYfNAhDZFF8OAky6ooc69tvvx1aqJlTH96whEG9Fq2MHTvWTJ48ORP3kcRPZBrCPZyWvC5UFStWtCNpwioZJy+JSTEN5y+99JJEL0bgy3nUUUfZ0VSEosN4bxBAQt4tWrRwrriHUyRN9WlH4icyC4sSJd4M+/QC1XfMSwtjYCi/MwsTJ4yOHTtmJkSVRGgLIf9LLjAMAWQI8sMPP+y5OZ+8n199hHFG4icyC60AhIu82pfddNNNtpE9aFhAWUg5VRBezVppehIhj9ykSRMzevToUASQkPvgwYM95/+oVKaKNc1I/EQmYSGinw9rLy/g/NG5c2dbeBA0GByTV1QVZ7Ig9HnqqafasVhBt0SQ86OZ/5577nGuuAPXn2uvvdb6uqYViZ/IJMuXL/c8n69ChQp26KifI2c2BSc8qgmZ8h52P5nwBzZbCBItEUELSs5ggRYML1D8woYrrUj8RCbh1OdlRAw9fOQKMaoOEgpxWDRppqYXMUpyJtBJBEGIenwPmxiayTt16uTbeKLCwFwBRx8v9yeCTR9jWvPK8vYUmYO+rLp169q+Jrfg4EJRgNfS8qJg8aFikAUoLEsyqlZxLqlRo4bZY4897INxP7iIsKDSv0hhRdJgAadQiPwum4j169dbj1PaXAgjY/I9Z86cUPJyCDE9mcOHD/fFnqww+Fso6KIC1G1+mN+VUVDHHnuscyUZyNhaiE1ALsNLTmTXXXe1lmGIQlCwcNEsT54oqH4xhBsxozkbA27mDFKxygmJU16Qwh4nCCXzGtOnN3v2bNvnho/nF198EWiYGSceprUHeSLlPiL8OWnSJOdK/rAZomAnjLy2X0j8hNgIfC+pvmPH7wb6qTjxnXXWWc4V/2HBomfQD5/RTcHJ7ZBDDrGN8ZwKyF2Kv0LBBxMwRowYYYXDD9u7jWFzQW4On9AgBRAv0saNG7vu3SOnTU8pG6SkUBzx+8c111xzg/O9EKmHEm4vZeeYRdMUH1Tui/AUs/bIC/ldGIHocQrg1MvYJkbZMMRV/B02Ofvss49p2bKlPaEhAIyFIlzqJ4xa4nTZsGFDz+0JhcFUEcR82rRpru57fj/aghh6m5TT37//s/m/Uyc/kRnYveO9yU7YDRQP4HzPpO8gYGHCl5NdOuXxfoFQ83eTP6RVIivhTD/hvaFCmFPa0KFDfS0+QlAef/xx2w4RlAByPxHeJq/phh122MHm/rg3k4Dm+QlRAPI4eGG6hTBhUMIHP/74ozn77LN9Ez5EjoIV2iQI3/G7S/jcwetWuXJl2x4zfvx4e2r26xTEyYqTfpBOMDvuuKM1rXYbXuXkyGzINBkrSPxEJqCggTJzt4sL4cHLLrvMeeY//H633HKL6535xhC24yRBWO30009PbItC3OBkhp8qRTEUI/lV9ERut3Xr1nYDFBRnnnmmreJ1C2bdFAGlBYmfyAQrV640H3/8sfMsf8j9VKpUyXnmLwgyp9K+ffs6V7zBLp/wHKG0oBvwswybIUzF9957b+eKNwjHE5oOqroX4caNyC20CFEElBaU8xOZgCZxppu7gVMTfWD77ruvc8VfMBKmkIa+M6/svPPO5tVXXzX77befQpwhwMaFKkr6PidMmOBcdQ/3GiFq+gCDgD5H8r6LFy92ruRHrVq1zIwZM2J/bynnJ4TDM88843yXP4Sj/Nrdbwz5nrvuussX4aNlgdCUhC88eJ3Lli1rhyETZvYKpz6qiYMaKUTOjxYat5CX9LviNSokfiL1EO5026dF2DBI42p6yIYMGeI8cw8FGEwQoAFfwhcuvN60kWAn5kVYcmCgwP9XEMUl/K60LFSvXt25kh/kJm+99VbnWbKR+IlUQ1gKRxe3Cwn9V5ykgoDiBj9GKhGOHTZsmB1nI+GLDuzfKIKhYtcr5H/nz5/vPPMXTqrMGXQLDe9pQOInUg1hRUKBbqHQJSgvS0Kxs2bNcp65g1AnFll4ckr4omf77bc39957r+ecHWFP2iqCaH3gPsHswO19TRSFftSkI/ETqYbWAbcO+jvttJNtDg8CjJaxSfOyuGGKTHHLXnvtJeGLEbQ/cBL3OlGdqSFuC1M2By0PeLm6gbzkk08+GYgwh4nET6QWPpxUznH6cwMhTxqbgwCXEC+tF1QF3nzzzaZmzZoSvhiCI8rIkSM99QGSX7vjjjsCERlOfaeddprzLH+obA2qJSMsJH4itZBLmzp1qvMsPxCUtm3bBlLo8tNPP1nXFbd5SH433GYuuOAC54qII3iDkm/2YlrNMFkqLIOgadOmdqqHGwh7Rj1f0isSP5FasGTC4cQNOLrUr1/feeYvGGvPmzfPeZY/WJZRcRfkJADhD+eff74dCeQWDKUJjwcB46uY7uEG2h3ef/9951kykfiJ1EK+z+3ulFwfbvh+QwiLQhe3o4o4iVJO7zWfJMKBVhkqQL1MVGfKxw8//OA88w/uJS+VqRMnTky016fET6QSPpReqjwJeQYBbi6MlnELp9EuXbo4z0QSwFCcuX1uc7MYILzxxhvOM3+pW7eu813+YPBNCD+pSPxEKuFkRb7ELeRrgoBdvFv3DrwZsWkLauyNCI6ePXta6zk3UFjCcOMgCl92220325/oBprxCcsmFX2KRCqhgZwPpxvo1dpll12cZ/5B1SmFLm7h1EeRgkgehD3POecc51n+4C0bxEQF8sYnnXSS8yw/EOOginHCQOInUgmNuG7zETS2MxLIb9glux2kC8xj06kvuXTt2tVurNzAvTNlyhTnmX8QivXiSbpq1Srnu+ShT5JIJV52yYif3y0O7JLpjdqwYYNzJT9q165tJz+I5IJpgpcCk8GDBzvf+Qfi5yXET1GZ2z7aqJH4idSB0Cxbtsx5lj9BOaZ4KVmnr4/GaZFcOLXzPro9vc+ePTuQvB+esLT2uIHUgsRPiJjAAuHWMxPRc1uYUBT8TnPnznWe5QduHMccc0wggizChRM8DzfQ7hBEdSV5P7fm7QhyUp1eJH4idSA0FAi4AYNot3mZoqAp2G3Ik+Gj1apVc56JJMOUfTYybkBksOvzG0L8derUcZ7lB765br1zo0biJ1IHu+OFCxc6z/KD8UD4ZvrNm2++6WmsUhCCLMKH0zuOL25P8UEYSiN+XsZ2uZ2VGTUSP5E6vHwYET+/i13grbfecrVosUg2atTIeSbSQNWqVV230lAt7LerCvdYpUqVnGf5I/ETIiZ89913znf5w4Rrv9sJWKzc5iDLlStnF0uRHsgpu52kTug8iAIT/GLdnkZxoEkiEj+ROtz6ZiJ6QQgNs/vcurpQHs9DpAd6SN0WveBVG0SBya677uraKD2pLi9b/L6T8L92VogImTx5smnevLnzrPgQ7pw+fbqpVauWc8UfcJtBVN2YE59wwgl2UnuSIOfaq1evUBugEZRBgwZZI+kkgF1Zx44dnWfFh9PZzJkz7RxHP+E9q1Kliishu+yyy+xsyTjxy2+bPx1L/ETqGDt2rG1UzxcKXWja9ZL/2BQsKHgousnVMA+ud+/ezrNkwOmEUTnMfAsL/CkJv9EWkgQQsMaNG+edB0b8mBLv1pKsMIiWsOlbsWKFc6X4nHfeeaZv377Os3hQHPFT2FOkDi/jX4JoJCdP47ZIwUsVnogvjMtyYyiNWAYRZkRU3W4cvvnmG+e7ZCHxE6nDbcELOb8gxM+LGCvfl04Iz7qtKvZS0FUYiJ/bdhqJnxAxwe3i4GVBKgovTcBJCeOJ/CBH6baf1G3xVFF4Eb8gfp8wkPiJ1OFF/ILA7cmPBSmI6RIiehA+txutIE5aOvkJkQJoLXADixGLgN/88ssvznf5E8TvI6KHELvb99bL/VQUbk+ibluLokbiJ1KHW4d6FhW/raPAbR6R3yWppsGiaHhf3TarlypVyvnOP7jX3HrP4leaRCR+InW4/TDS6xSE+HlZrJK6qxZFw0bLrfhRKeo33Pfr1q1znuVHEL9PGEj8ROpwK37sxoMQGy/iF0Rln4geQvNuxa9MmTLOd/7h5eQXxO8TBhI/kTrcio2X3W9ReGmfWLx4sfOdSBO4/rjdaAURZtTJT4gU4LZqjQWARclvqNh0W0mK44xIH5999pmrfC5FMhUqVHCe+Qf3Ps48bpD4CRETvLQsBHHywzDY7Wn0o48+sguTSBfz5893vsuf/fff3/nOP7yIn8KeQsQEt+KHBdny5cudZ/7Byc/tAsGstKS65otNw302e/Zs51l+ENXYbrvtnGf+gRGD26iHxE+ImOCltWDRokW+n7ToH3Rrlv3FF1+YlStXOs9EGmAzM3fuXOdZfuAH6rYfrygIw7q97ytWrOh8lywkfiJ1ePHDXLhwoe/DQsnTuJ3GTlHEu+++6zwTaYDJCcuWLXOe5Qfh8yAs+BA/twSRgwwDiZ9IHSVLlnSdhA9C/OD444937ejBfEI1u6eH9957z7VLC3Mq/Xb9IQzrpaq4XLlyznfJQuInUgfWUQcddJDzLD8+/vjjQOyjGGbrNhc5depUO6tOJB966V577TXnWf5069bN+c4/2Ox9+OGHzrP84LMm8RMiJrAzdit+uLwE5Zrv9jRK3m/atGnOM5FkPv30UzNlyhTnWX5Q7LLnnns6z/yDqIJb8atcubKruYRxQOInUge7US9DYL3kP4qidevWznf588orrwRmaCzCgYKSMWPGuG6nKV++vL23/YapI24muEPdunUDyUGGgcRPpBIvSXjCjG4nrxcGJ7927dq5ztewaC5dutR5JpIIUYWhQ4c6z/LnhBNOcL7zF9p73N7v9BxK/ISIETvvvLPzXf4MHz7c9VikoqDdwW0lKlWfDz/8sO9tGCI8XnrpJTNv3jznWX7QK3rOOec4z/yD+2nChAnOs/zZa6+9AjmNhoHET6QSQkQ83EDlWxCN5UxlP+aYY5xn+YMor1q1ynkmkgR5tUceecR5lj/k1qpVq+Y88w9OfEOGDHGe5U8Qv1NYSPxEKqGykrJwt7jNgWyOtm3buq76xH7qzjvvdJ6JJPHcc89Zqzq3nHLKKZ5s+wpj7dq1rnsOia7ssccezrPkIfETqQQXjMMPP9x5lj9eytGL4sADDzS777678yx/nn32WVV+JgzGUt19992uQ+k0tp944onOM3+h+tQtfL6SWukJEj+RSigsqV+/vvMsf5566qlAZvuxWJx88snOs/yhMu/aa6+1xRMi/pBT47RO/6hb6tSpY2rVquU88xdOpG458sgjA7FaCwuJn0gtu+66q+uwzFdffeXaf3FznHfeeZ4KcmbMmGEeeughFb8kgOnTp5snnnjC9XtFocv5558fSFEJ/awvv/yy8yw/+H04+bmtXo4DEj+RWjhlEWZ0A64Xzz//vPPMX6j6PPbYY51n+cPvdu+995qZM2c6V0QcIUfbuXNnOzHBLTVq1AisxQHPWAwU3MDGkkeSkfiJ1EL/UbNmzVzvTkePHm0LAoLgkksusdWfbmFBpW9Qje/xhRMbU0K8wP9HEIUuVHm+8MILrvv79t13X3sqTTISP5FqWrRo4XrxWLJkSWCnq+rVq1uzay9QpXfSSSe5HkIqgoG2hrvuust1SDEHPXRnn32288xfKHSZNGmS8yw/CHnSc5jU/r4cEj+RasqWLWtNpd3ArpjG5CCmPMAVV1xhdtxxR+eZOyZOnGh69uwpAYwJ3CtPP/20uemmm1yfqoCoRa9evQI7XeEv6rZnFI/RVq1aOc+Si8RPpBp2p127dnUd+hw7dqzrPqjNsc8++5gLL7zQeeaewYMH25MGEwNEdCB8eLAS0va6YTriiCMCE5j169d7qvKsXbt2Yi3NCiLxE6mH0JHb/Nrq1avNM888E0hlJQsIOR1CoF6hnP6aa64JpD1DbB5OeSNGjLCVvF7bULhXr7zySnvCCgKqhd2GPNlEcqpNAxI/kXroRSJB75ZHH300kDFHQMUcouXHThr7rE6dOtmdvdogwoOio4EDB5pzzz3Xl80H/z8NGjRwnvkLIv3AAw+4PpliGeh2XFjckPiJTHDDDTe4Dn3S8/fYY485z/ynZcuWvoW4cIChwpVQrQQwWHh9qbplwGyPHj18eb0pcrnqqqsC659jbt+bb77pPMsf7q2kV3nmkPiJTMBudZdddnGe5c+gQYMCy6lttdVW5p577vGtb+r99983TZs2NaNGjZIABsjChQutUbkXY+iNefLJJwOdjO7FGxbR69ixo/Ms+Uj8RCYoWbKkJ6Przz//3Dz++OPOM/9h1NGwYcOcZ9758ssvbTl6hw4drLek8A9ChnfccYc56qijXE9A3xS33367OeCAAwI79X3wwQe2OtgtVE0HZbMWBRI/kQlYUKisdNtaQK6EeXoUwAQBvx+nUxZAvyD/RLEOCyphW57rJOgeRA+7skMOOcTccsst5ptvvnF+4h2ENCgbM+B3J/T/448/Olfyg9+L32+77bZzriQfiZ/IDOxaWWTc8tlnn5lbb73VU/9WUVD0QsHKWWed5VzxDmKHhdVFF11kDjvsMPPiiy+adevWOT8VxYFpDO+88441JSDnheer11aGglCMRVFVUNWdgFWf2wpP4NR3+umnO8/SgcRPZAZ2r4jLDjvs4FzJD4SEgpJZs2Y5V/yHnfX9999vmjRp4lzxB353pogzT/C4444zffv2NUuXLtVJsAio8KUf7owzzrC5PcQD9xY/qVixor2nvBidbw7C3rfddptrKzyiEmeeeaYpXbq0cyUdbLFhwwbd/SIzsGOnspLmdbdwgnr99ddtoUpQrFmzxhx99NGeRuFsjgoVKtjCGIyT69WrZxdgP/JNuM0QGvzkk0+cK8GDiTl5WS9+qcDIKHJjVETSsE7VrJ+nvIKwCWNuJK99kNBKc99997ne6HCfEO4NUqD95pffNv+eSfxE5kD4EEC3ixonSKryWrduHVhxAqxcudIK4PLly50rwUC4tUSJEnYCBl6ohOEqV65se7r4GX8vf2fu6+aIq/ix+PMgbJ17IHYI3OLFi824ceNsQci3334buGE4BVj9+/f3NNuxOLCJwkTBS6XypZdeanOcSULiJ0QhMIiT3axbCE8uWLAg8N0wCzNht48++si5Eh5UoNJ3RgsGbSJsGDj1bo64ih+bCJrRqYQlD4q5c1DWdUXBpgJDAjYaQYLTDDZpXipSEWlaZwjPJoniiJ9yfiKT4L/oxVWFnTR5kKANpTmBkRMKOjS2KTg1UOiBbReLNYtgkkH0yKcOHz7c5u+iED42EvSMBi18RDWY+ei1FQO7NsKeaUTiJzIJPX8UfniBk2OfPn0CywnlYPgthRdBWV4VF0KjSYZTTJQQJeB9JM8aJIR2p06das3OvbDHHnuYLl262HB3GpH4iUzCjL/evXt77lsiF4JRcNBVkyycFEfQuB5knrEoohYPr9BK4IeHqhtos+EUTV41SLgPseOjqtdr3pKRSrvttpvzLH1I/ERmqVOnjrn44oudZ+7g1Ef/EzmkoCGvRZEEDeteqxrdkHTxw+A87NMrYov351tvveXJXq+4YGTACC8E0AuNGjWy93VUG60wkPiJzMIHm74/wopeWLt2rWnXrl0ozeOEoCiAoWKVeYBhkvSwJ60pYf4NtDKwUaHHLgxnFKpX7777bhsh8AIenowtCrLpPg5I/ESmIZyIa4tXmIzNKdLrLLfigABiWUZpPtPgw8rJJF38ci0dYcCkDsKcp512WqD9oAUZMGCANUj3CiOV0jK2qCgkfiLTcPqj8q5u3brOFfdQlcmO2W8XkE3B7122bFlz7bXXmsmTJwduOEyOlEeSCePkR3vI008/bftAq1SpEtrGBNu666+/3nOej9Dw1Vdfbb+mHYmfyDws6pS/ew3zkP976KGHzIMPPhiKAAKLFEUUnDyxLAtqweW1SfocN8QvqLwlG5GePXta6zv6IcnPhpEvo8CFCED37t1dm1bn4PdFuOlDzAISPyF+Z/fdd7fi4bUaENEjx+PnjLfigIDTk4VDyc0332yqVavm6+KL+CX9NMDv79bXtTAQis6dO1sBovI3bOFAbPnv40rjBe4Vwp3HHntsKKIdByR+QvwOpyV27BSTeP3w0/h+2WWX2WKHoFsgNobFlxPI6NGjrQjut99+vpwE03Dy8zPnx2YJ0WFgMEUmFB+FLRrTpk2zE0CwwfNKjRo17DitsPKTcUDiJ4QDH/wHHnjAnpq8ggBefvnl1lA46Cb4TUF/Fp6MEyZMsAbN7Oi9hHXTcPJjE1CqVCnnWf4gnjjt0G5CEzkOKuRavUYL8oUNFQ41OAz5IXyEghmp5OW1SSISPyEKQFiMiep+5Iao/LzuuuvsENGoBsly0mGGIRZlK1asMHfeeadp3LixrXLN5ySXhpMf5DPMGLHn35NTZR7iwoULbb8e4UFO2FGEB2ln4FSPIbbXXj5AuClwoeArK+HOHBI/ITaiZs2a9tTmR7iQxYoTAm4ZYbRBFAW9ZiziY8aMsQs5U97JEx588MG2SpHG+cJOMYhfGkJihW1qWPgpUkHseP+Z2EEOmBmInPLYNETtdkIEAXs02if8upeYGsI9kUU01UGITcBCc+GFF5qhQ4c6V7zDJInBgwfbysC47bJZTJl6wPxAJkgw8WDVqlX2gXsNM/8IjRXn947rVAegmpHFHrHHZJoHokZulLwXIe849jNipE5BDWF0v6hdu7adS1mmTBnnSnrQSCMhPMAiTgEMg039AourF154IXCPR7cUDM3mvs/Nvitu2DPO4semhr8ld8ItKOZxDfsR3sRqjKZ5v8C0mvAprTFx/bu9oJFGQniAhZSTmp/jhBirg6s/0yB+/fVX52p8YCHMPQj78iD3lYZ8HyB6hG9zf1vBvzdusPmgdQUPWj+Fj3wlfa1pFb7iIvEToghKly5tBbBq1arOFe9Q/HLVVVeZDh062NOKEBtDwzp5xlNOOcV89913zlXvkPclfI09XpaFDyR+QmwGjK8RwHLlyjlXvEPo7fnnnzfNmjWzVlhebalEOsi1MZx44ok2x0euzy849TLMlyIXIfETolhQCk7Tut/FEEuXLrVT5cnphJkjE/GDoiPuBfLMhDn97A/llEfLDb2BWT/x5ZD4CVEMWDDYMWNe7beFFWFQ2g+YoUY1HyGvKHoCRfjwPiN6GBEQihw4cKD5/vvvnZ/6A/laprpT5ZqW3K0fSPyEKCYUSDRp0sT2x1WsWNG56h8sejQc89946qmnzNdff+38RKQRRG/8+PHm1FNPtSeyZcuWOT/xD8SOUCdWbBK+v6JWByFcMH/+fJuXCbJgZf/997e79eOOOy5R1lNxbnWIA4geYc2HH37YthsEdcrHmICq4iyGOtXqIERA7LvvvuaNN94wlStXdq74z4cffmg6duxomjdvbue1+Vn1J8KH8Pb06dOtGTX2ZExcD0r42CwNGjRIOb4i0MlPCA+sXr3aup/MnTs38DwdvqPdunUz55xzjnUloV8tjgubTn7/gxFXa9as+XPkEUbUVPoGCb6tVBATPs8qcngRIgRoU+CExuks6IUtB8UR+I+ywCGKlLHHRQizLH5sgLgHuCc++OADO9z41VdfDW2yB1MmuA8ZuZRlJH5ChASLHvmV66+/3oa3woIhtkcccYRp0aKFOf744619WtRkVfzWr19vQ+GEM8nlhR2mJsSJGTeN7FlH4idEiLDjnzJlimnfvr01gw4TTn1U8+21117m0EMPtXklpjVEMYkhK+LH+83fSPUvVZsLFiywTelhnfJysAFiEC0TOvheSPyECB1OgExCQAARwqjAj5OFEMd+JhjgT0rhzGGHHWZDpDxo3ch99ZM0iB/CxiNnhM1XxI1+TGb6sbmhFYW/lbxe0PnewiC/h1MQRul+v49JRuInRESwKNJYTBhq3bp1ztXoQRSZaYdI5B5UBjLap3v37tbJxitJFb9vvvnG3HTTTbbfDmEjjMnfwmmO95CvcYH3kTA3syJ578RfkfgJESGcFt59911z44032tNC3GHa+7HHHus8c09SxY//PSFjqjPjDO01WJXRZ8rfLf5OccRP52QhAoKQIiKAJdrdd9/taWEOA6aYZxnyo3EuFuF+6tSpk50viSuMhM8bEj8hAoRCFMKKXbt2NTNmzLBTHAhZxQ3yg1mvEqRgKI6vAfcQpgq0MBDmxFovjv2dSUPiJ0QIsFgxE5DQ4iOPPGL7seIkgpwisl4pGLeTH/cMZga9evUykydPtgVLnP6EP0j8hAgRFi8cWpjQzbDS6tWrx6JKD/HLehgtTuJHvyYFSNwn9I5iZCD8ReInRARgOtylSxe7uFEVusceezg/iQYW/ay7/iN+UedlS5cubUPk3Bd33HGHPfmJYJD4CREhucXu/ffft4sdbQhR5HMIeWb95MfrzusfNvx32XxQxIKZOcVRlSpViuQ+yBISPyFiACfBiy++2DZPjxw50o4zCjMnyOKr6sFwK14Jd9O2QPj7q6++sjMcGZQs0QsHiZ8QMYIFsWnTpmbq1KnWUYR5fhUqVHB+GhwIn4adhiN+5O845WGJNnv2bJvbi2MFcNqR+AkRM9j5UxhDvgfPxlmzZtleQYbaBrVIcvLUAvzHHLyg4DTPlAemPTBrjx7QKLxXxR9I/ISIMZwE8edkZuCwYcPMokWLzKhRo0znzp1NiRIlnH/lnahyjXHDT/Hj9WzZsqV93+bNm2dPeh06dLCbGm00okfiJ0QCYCGlKIUQKGFRmp2x43rnnXfMPffcY225KI93W6of5IknSbgNe3KCK1u2rKlZs6bty2N4LYOOhw8fbqe2V6lSxVaSaoMRH+TtKUQKYPIAnpQrVqwwS5YsMXPmzLGnjU8//dROmfj++++df7lpKLah2tQPkurtCUxtQKyKgg0GmxCcVmrUqGFq165t9t57b9uuwnWFMqNHxtZCZBgEkUkFnEBWrlxpvyKQPNauXWt/hij+8MMPdgQTfYd+kGTxw4ic14EcKKdAHuXKlbMPKjEZD8WUdEYJ8b2ELp5I/IQQhcLUiV9++cU+/PS1TLL4/frrr3aUEaLGayJxSyaa6iCEKBQqShE88n1+CV/SQew47XHyk/ClG4mfEEKIzCHxE0IIkTkkfkIIITKHxE8IIUTmkPgJIYTIHBI/IYQQmUPiJ4QQInNI/IQQQmQOiZ8QQojMIfETQgiROSR+QgghMofETwghROaQ+AkhhMgcEj8hhBCZQ+InhBAic0j8hBBCZA6JnxBCiMwh8RNCCJE5ttiwYcN/ne+FEL/z008/mWXLlplPP/3UrFmzxnzzzTfm22+/Nd999535z3/+Y7bcckv72Gqrrf7y/dZbb23KlStndtttN1OxYkX7dfvtt3f+X7PDv/71L3PIIYeYTz75xLkSPNtuu635/PPPzT//+U/nisgyv/z2b+e7wpH4iUyCiP373/+2ojZr1iwzbdo0s3jxYrN8+XK7iCKAv/zyi/03PIrLP/7xj7+IYenSpU2FChXsA0GsVKmSqVOnjqlRo4bZbrvt7L//v/9LVwBG4ieiRuInhANC9sMPP9gFcvbs2WbmzJlmxowZZsGCBea3335z/lV4IIz77LOPFcKaNWtaMaxWrZopVaqUKVGihBXFLbbYwvnXyULiJ6JG4icyC6e1r776yi7ACN17771nRY+THae+OLLNNttYAUQI69WrZ+rXr2/22GMPU7ZsWSuGSUHiJ6JG4icyxa+//mpWrVplxe7ll1+24czPPvvM/Pe/ybzFCYdWrlzZngyPPPJI06BBA7P77rvb02GcT4USPxE1Ej+RajjB/fzzz+bLL780o0aNMk899ZQtVFm/fr3zL9IFuURyiHXr1jVnnXWWFcNddtnlzxBpXARR4ieiRuInUgUnOMKZVF0uXLjQPP300+bZZ581v9/Dzr/IHiVLljTdu3c3xx9/vNlrr73s4s+JMUohlPiJqJH4icSTC1nSbjB+/HgzdOhQ8+abb9pr4q8gAK1btzYnn3yyOeyww6wwQthCKPETUSPxE4nm66+/Ns8///yf+TtOeHEtVokTnPyoGCU82qJFCxsiLVOmjPPT4JH4iaiR+InEgcD169fPjBgxwi6e5O/y6bMTfyUnhLRVtGvXzrRt2zbwvkKJn4gaiZ+IPfTfrVy50jz33HPmpZdeMosWLbIN5iIYCIUecMAB5oILLjCNGjWyJ0K/xVDiJ6JG4idiCS0JFKyMHTvWjBw50sydO9cumCJcsF9r2LChOeWUU2xP4U477eT8xBsSPxE1Ej8RGyhcWbJkiRk3bpx55ZVXzEcffWSLWET00EJRpUoVc/TRR5tWrVpZ4fJyGpT4iaiR+InIwTuTHjxCmjSfU8SS1KbzLIARd61atUybNm2sENJXmG+1qMRPRI3ET4QOPpmc6N59913zwgsv2FOecnjJBHPuM88805x99tnWg3SHHXYo1olQ4ieiRuInQoH2AwQP70xOebQncMIT6SF3Gjz22GPtZAqMuQtD4ieiRuInAoUTHQscTiuvvvqqWbp0qfMTkVYQF3oHO3bsaA488MBNziuU+ImokfgJ3yFfx2ggxK5v375m3rx5tnpTZAv8RJlA0bNnT+soQ0g0h8RPRE1xxC9dUzSF7yB2PDCQZthrs2bNrJny+eefbz788EMJX0bBeIB2FfoFd955Z+svunr1ahsCV0GTSAISP1EoLGK0J9x+++2matWqpnbt2mbq1KnOT4X4AwTvscces/fIUUcdZSZNmhTJgGAh8kFhT/E3vv/+e+unOWzYMDsENq0jgkQw0DeIIIbpw6qwpyiIcn4iL2hPeOSRR8yUKVPsFHTt3kVSkPiJgkj8RJEQ1qQJnSGwnPLw1SS3J0TSkPiJgkj8xCahGg97MUQPb0315ImkI/ETBZH4ib+watUqM2bMGDtBYcaMGXJeEalB4icKIvETtiSdU94zzzxjT3mffvqpStFF6pD4iYJI/DIKVXY//vijmT59urnnnnusoTRz84RIKxI/URCJX8agWGXZsmXWTLpPnz4aGSQyg8RPFETilwEIYf7+HtrTXf/+/a3wKawpsobETxRE4pdiEDhOehSvPPDAA9ZqSqIXHDRuM+IHa7cSJUrYFpG1a9daezf1Q0aPxE8UpDjiJ3uzBLJu3TrTq1cvs+eee5pOnTqZBQsWSPgCAPPmI444wkyePNl88cUX5rvvvrP+ph988IFZvny5fY4ZAC44vA+IopcJ6EKI8NDJLyFQtYmR9I033mgdWNSm4D9MLK9YsaI5/PDDTY8ePcw+++xjR/YUd5I5J0AKjRBInHLGjh1r20tE8OjkJwqisGcKYDGlRaFfv35mzpw5qtr0GYQNkTvmmGNM69at7fc77rij5xMcJ3HMA9iwEJqmv3LFihXOT4XfSPxEQSR+CYYTA6cHDKbpzVNeyV9YJE899VRz5plnmoMOOsiUKVOm2Ce8fOHUTn6QoiTmID777LPWPFz4h8RPFETilzBYJGfPnm2HxL7xxhuyHfMZxG3vvfe2+bmTTjrJhji33npr56fhwCaG/OFrr71mHnzwQfPxxx8rX+sDEj9REIlfQiC0OW3aNPPwww+biRMnWhEU/rHTTjuZ5s2bm7Zt25rGjRuHLniFQaXohAkTzBNPPGHGjx9vT4fCHRQn3XTTTaZz585mu+22c66KrCLxizG5nBAnPBa/d955R6LnIwgcw3cJbbZq1crstddegYU1vYIjDydAwqHkB/k+zFl4aYH398QTTzS33XabqVy5cmzfbxE8Er8YguitXr3a5vIGDBigsJfPEPZq2LChueiii0yTJk1stWZS4D6gfYKQKKFvcoTaEOXPHnvsYR566CHTtGlTeyIU2UPiFyPYyVPEMnToUFu5SX+Y8I9SpUrZis2rrrrK1KhRwzakJxlaWd5++21z9dVX275CVfnmByf/nj172scOO+ygU2DGkPhFDDt58jr4bVK5OXDgQOcnwg/Y1eO4ctppp5kbbrjBlCxZ0vlJuqDFBVGn2Z78sCg+Bx54oP3c0cIiA4LsIPGLEHbqOH/cf//9ZvTo0Qpf+QiiV716ddO1a1fTvn37zBQ4LFmyxBZ1EDL/4YcfnKticxD6xgLwjDPOsDZ1Iv1I/CKCIhaS7uRslM/zlwYNGpjrr7/e5nPYyWctnMX9RKsEbRL33Xef+j+LCfdKmzZtbC5wm222ca6KtCLxCxEWJeys8Nxkh65FyT8KVvFVrVrV5vOynsMhkkDhFPMaiS6IzcM9U69ePfPCCy+YcuXKOVdFGpH4hcC//vUvK3q9e/e2Zsc66fkHRtG0KlxzzTXWxFs5m79DIRXFU7fffrt58sknFQ4tBhUqVLAtJTj7iHQi8QsQFhlyLzSmz5s3T31ZPrLzzjvbENUFF1xgT3oqVy8eS5cutaHQ4cOHa5DxZiAPSBEafq7aVKUPiV8AIHqETaggmzt3rgpZfIQd+XnnnWfOPfdcU6VKFYmeC7gf58+fbx577DEzePBgeYgWAZZo1113nenWrVviW2PEX5H4+QiDY1lMWFSYn6ecnn9gP0Y/1llnnWV222037cR9gPuT+/Suu+4yw4YNU2SiEBA9qoZplVEhTHqQ+HmE/B075xEjRpg777zTjqRRTs8fONVhOdaxY0fTvXt3u/CoEdl/OAm+//77dnHHP5RNnPg7TPegEjRJjkCicCR+LkHgKCJ46aWX7AeCXIrwB0QPz01E75xzzrFFLSJ4EEFmCt5yyy22/xTzBfFX6Bm94447UmuWkCUkfi7AQWPUqFH2Q7Bo0SLnqvAKoUxsxwgxUcwi0YsGwqEUxNx9990q1NoIIg8dOnSwlbNYoonkIvHLA3bCU6ZMsWX1TN9WeNM/KlWqZK699lpbWadddTxgk0cO+9ZbbzVffvmlc1WwSaPKmM2vcoDJReJXDAgHEdZs166dzY0If2ARoWWBXCmFLKrcjCfkANmYMGFEPYL/44orrrB5UuWhk4nErwg42X366afWMPiVV17RSc9HGCnDCZq8nhaPZIBl2sUXX2yLu9S+8weEh1u2bKl7OIFI/Aph3bp1dlTM008/bdavX+9cFV7BhYXXlUIWeqhEsshVhvbo0cOOU8o6ZcuWNSNHjjQHHHCAc0UkBYnfRjAjjb6nRx991Kxdu9a5KrxCb97NN99s/TdLly6tnXKCIQKCZd+bb75pLrzwQusfmmX23Xdfa18oL9BkIfFzQPQ45ZF/WrlypUKcPoDA4chCYcAJJ5xgC1nUnJ4e+IxQFEPoj/xXlvOBZ599tnV00qYuOWRe/JipN3HiRHPjjTfaadjCH7AeIzRGIUuZMmWcqyKtYNhOVShCmMU0AVPhmcnJOC0JYDLIrPixa8Xa6d5777Xm04RxhHd23XVX07lzZ9sMzPdaCLID/YFvvfWWHSs1YcIE52p2oIiLvkgNw00GmRQ/dqa4tffr189WsAnv7LjjjrZyE+GrXLmyRC/DEP4cMmTIn3Z/WYIKZkaX6f6PP5kRP056VKqxM73yyivtDk15Pe/gckFjOs73mqcncvDZInd+0003WdPsrERWyGsvXLjQFnWJeFMc8Uv8asYH8fPPP7e2WVQbMmZIwucNPuSI3rRp08wTTzxhT3sSPpGDk8/uu+9uq6YnTZpkc2FZCAdy6iXvqfUlHST65EcV52uvvWYuuugiDe/0AXrzmjZtahv/ldwXxYXCsscff9yGQjGOSDPVqlUzkydPtqkAEV9Se/Jj5/XZZ5/Zoadt27aV8HmEU92BBx5oDb1xuznssMMkfKLYUA1JT+DMmTNtXjjNnpiffPKJTa/o9Jd8EnXy44bj8eKLL5pOnTqZ33935yfCLeQvELxDDz1UlWzCF/DKPf74421+LI0icfrpp9u+P0RfxJPUnfyYsXfSSSfZ056EzxsUsDz//PNmzZo1plGjRhI+4Rv0gc6ZM8fmx3D/SRu432gSRvJJhPgxc4yQXOPGje2NJ9xDv1Lfvn3NRx99ZItaNG1BBAH31WmnnWbHg1122WVmu+22c36SfEizHHXUUXZNUvgzucQ+7EkLw6WXXmqGDh0qE2oPYNKLTRV50vLlyyunJ0KDBnlEkJaZ119/3bmafBD0Vq1a2en4u+yyi3NVxIFE9/mxo1q8eLF1E8FpXjssd/AB7dmzpzn//PNtebpaFkQU8PmlHxCbMD7TadnIsolkWDMWiqeccoo+XzEhseLHaY9RIvTuffvtt85VkQ+lSpUybdq0sac98ntCxIWvv/7amlGkqUEe0Tv55JPN7bffbjeZIloSKX707t1///32Jvr111+dq6K44MpCUdAll1xi6tatq52oiCXk8ceMGWNPTLRIpCWyg/AxGZ98Z5pbPuJO4sSPGXvsCBk/JPKDsutmzZrZBvX69eurkEUkAk6Bffr0sY/vvvvOuZpsqJw+7rjj7CSMqlWrOldFmCRG/Nj10TxKXurdd991rorigMgdcsghdgd9+OGHm6222sr5iRDJgM8/BTHkpqdMmWLTHmmAIjOGZ5ML1CkwXBIhftz4hD2YDYdHpygeiN4+++zzZ6JdiKRDKHTQoEH2nsY4Ow1QEIP7DUOf1RQfHrEXP4QPn7wzzzxThS3FhA8TjcP4mXbv3l07SpE6Vq1aZY455hjbKJ9k2KCeeuqpdq6ohj6HS3HEL7JqCIQPWy0SwxK+4oHxNDlRWj9oHJbwiTTBmvDjjz9ag+ykCx/pByzQHnvsMQlfTIns5MeoHJrXf//vO1dEUVDByZBemmnVoC7SyPTp080555xjlixZ4lxJJkx+YNoMERp9VqMhtic/dkQXX3yxhG8zEDZp2LChbfZ/4YUXJHwilTAnr0OHDta+MMnCx2mPoh1qGCR88Sf0kx9tDF26dLEzwMSm4UOz//772yR5kyZNlCgXqYQwJ1695K8//vhj52oyob8Pz1w8PyV60ROrghdudE4vGkVUNPQF9erVy3oGKlcg0go9fbme3nXr1jlXkwcmEi1btrT+npUrV5bwxYTYiB/CRwy8Xbt2MqcuhO23395cffXV1ni6QoUK+hCJVFLwtLdo0SL7PKngm3vzzTfbzyzOSiI+xEL8uLlpXMX3Li0+fn7ChwYPTnbBjBuSHZlII6wDq1evtmJBzp9JD0mHSTNEaLRRjR+xKHhhd8fwWQnfX6FNgQrOCRMm2CpOnOElfCKNkN9/9dVXTdOmTe29ngbhg4oVK0r4Ekygqy07PUKdfBV/gO/foYceaqeov/jii+bggw+W6InUQsM6FZA0e8+fP9+5KkT0BLbqksQmro9nn/iDvfbayza9jhs3zpxwwgkSPZFaON0xtYHTHlWQqu4WcSOQ1ZdRRPjzMZMv6xAWKVeunLnhhhvMggULbHL8n//8p/NTIdIFuT2ms+Bn2aJFC7Nw4ULnJ0LEC9/Fj5sf0evfv79zJbuUKFHCXHDBBbaH6frrr9fEBZFa+NwzjWHSpEnWcP3xxx+3RtVCxBXfxe+LL76wfWppSWq7herWDz74wPTr10/9eiL14MmJSwtN3szoEyLu+C5+DFPN8miiAw44wEybNs08++yzNsenajCRZjjx0bdXs2ZNM3jwYJ32RGLwVfwIeTCpIYvstNNOdhF4++237XBZhThFmkH01qxZY/vcmFqelvl7Ijv4Jn4UuVx33XXm559/dq5kg/Lly1trIybRE/Jh7JBOeyLN0LP76KOPWv/Zl19+OfMpDpFMfBO/119/PfEzuPIBOzJ8St966y3Tu3dvU6pUKecnQqQXWpdOOeUU061bN9vDJ0RS8UX8iPMPGDDA/PTTT86VdNOsWTMr9g899JCtbNNJT6QdClqIcDBhnf49Ij1CJBnP4ofwket75513nCvpBIGrUaOGeeaZZ8xLL71kGjVqpLyeSD25z/eRRx5p23Xk1iTSgmvxI+H95Zdf2jwfHpVp9u5kiCy7XoZUnn766WpSF6kn9/nGcJ1c9qxZs1TJKVJF3uLHh4LJy0OGDLGnn3vvvTe1IZCSJUuajh07mnfffde2cEj0RBYgfYHvbIMGDczdd99tm9eFSBt5iR8fgunTp1tfSoo90lre/I9//MMcccQRZuLEiXb8ClOaldcTaYeN7fLly81ZZ51lIxzLli1zfiJE+iiW+BHuoKcHB4fmzZvbk1AaQeAQulGjRtmePRrWJXoi7SB6nPYoWqtdu7bNaSvEKdJOkeLHh4LpDIQ+qlatal1L0trTU7ZsWXP//ffbnS8VbZz+hEg7iBzFavvtt5/p3LmzreoUIgsUKX6cgDj9MJEgrSNJtt56a/uhx3yaEUwaMySyAn16DJo+/PDDzZIlS5yrQmSDv630nPbmzZtnLYvatGljVqxY4fwkfVClSgi3T58+9uSnEKfIAkRviHLUq1fPPP3003JoEZlkiw0bNvzX+d4K36JFi0zjxo3N999/71xNHxUqVDDDhg0z9evXlx2ZyBTMlDznnHPM7NmzUyV6RHDCjk5REIePr4gfv/y2+Qrlv5z8EIG9997bJrwrV67sXE0Pu+22m03qk9dr0qSJ2W677SR8IvWwqWXSCm07TF947733UiN8rFekZxgYLUQ+/C3siRgceuihZvTo0bbwIw3iQL/eJZdcYicuMFyWXaIQWYCCNdp16MllwCxCmAbYuJKrHzdunJ0Yr02syJdCqzsqVapkG9kpAiE0mFSYps6csfvuu8/ssccezlUh0g1VnFOmTLEjh7p27Zqqnj38dIcPH24eeOAB25okhBuKLG3cYYcdrK1X37597by6JELp9jXXXGNPfWnZ9QpRGNzjn376qT0VcSKiXzUtDi146RK6HT9+vGnZsqUiOMITRYofbLnlltbxASd32h6SCNWrGPPSsvHdd99JBEUq4d6mirNWrVo21Jmmnr1q1aqZ1157zf5du+66q3NVCPdsVvxyMNGAPCCzvBDEpIH/6E033WQdaubOnSsHC5EK2MjhzjJy5Eibq7/00ktTJXrk9tq1a2fnCB599NHK7QnfKLb4AQNbBw0aZG6++ebE5gHp6zvwwAMzNX9QpBM2cLQmnXzyybZndeHChc5P0gGuUlSes+bIVF74TV7iB8TZKYJ54403Eju9nFNgly5dbE7kiy++UBhUJAru1/Xr15vu3bvbECcpiTTdw7gstW/f3rz//vs2UqPTngiCvMUPuDkPPvhga4mUxBBojgkTJtgK0EcffVSTqUUi+Pnnn+39Wr58efPII4+k7r7dc8897exA2jKo1BYiKFyJH7Ab22abbRLvhUmz74UXXmh7GnG/ECKOEOKkp42QPfdr2oZHs5b07NnTnvbq1q2r054InGQrl08QMuIUyAw/Jlik1cRbJBOsyE499VRb3k/lctrC9EyUeP31180dd9xhypQp41wVIlgkfgVYvXq16d27t60q++STT5yrQkTDN998Y/vamjZtakaMGJG60x5RoyuuuMKeaLEbpI9PiLCQ+G0EYdDJkyfbnOaNN95o7aFUECPCgntt7dq15uqrr7bVjuS+vv76a+en6YCQ5kEHHWSmTZtmbrvtNrPzzjsrzClCR+JXCEy1oCmeCRfsTDX2RQQNIvfQQw9ZYUAUvv32W+cn6QGhu/32263jElNVNDRaRIXEbzOQgKclokePHtY2SqdA4Tc0pTNiq1mzZubiiy+291naIKRJzpLcXq9evWRNJiJH4lcMKCd/+OGHbe6FRYpycyG8QjRh7NixdnN17rnn2o1WGsF8GlsyzKip5BQiDkj88oC+xrZt29odLAUxaTEMFuHCZgqLveOOO84+mL6QxrA61mRnnHGGrVbFooznQsQFiV+e0G+Fu02dOnXMvffea/M0CoWK4sBmCTuy888/356A0jRxoSAUr9C+gN8okZLSpUs7PxEiPkj8XLJhwwabuzjkkEPMK6+8ooIYUShsmL766iubz8OOjPmSab1fyO0xQuydd94xRx11lKo4RWyR+Hlk8eLFdtIF+cA1a9Y4V4X4Ayo2L7jgAjscmrmYaTZQYOQZIU5ahLbffnvnqhDxROLnA+zs6Q3El7Bbt27WdFhkF8LgzNYjP4x3LL16RArSyo477mhefvll27fHlHWd9kQSkPj5CAscu3uak4cOHaqRSRmDTdDSpUvtBoiT3pAhQ6xJQlphzFCnTp1sIRhFYPhzSvhEUpD4BcCXX35pq9uo5FODfDYg/M2oLwbKMm0Bk4S0gi0ZPriMUmKzJz9OkUQkfgFBFd/EiRNNq1atzFlnnWVzISJ9LF++3Bay4ASEEFDYkmZwaOnfv78dMtuoUSM5tIjEIvELGNw7nn/+ebs4skh+/vnnNjwmkgvvHybonPQYMdSnTx+zatUq56fpBEcWTLanT59uvyZ1kLUQOSR+IUEYjEWS/kBGtxAaVX9gsiCHO3PmTNO1a1db3IQPJ5MX0gw5PEK5hDgHDBhgKleurLyeSAUSv5ChKR7H/oYNG5onn3zSVgVKBOMNp3eMDdq0aWMOP/xwG/bLgsVdhQoVrAl1btZl0gdXC1EQ3c0RQYVchw4d7OxAwqJprgpMKmxMnn32WVu4dPzxx9uZelmo4N12223NmWeeaaZOnWrn7fFciLQh8YsQTnyzZs2y/of777+/NTlmYKlOgtHA604+j8b0xx57zLqx5EQgCxW7nOywJcNrlFadKlWqJCLEqc+LcEMixa9kyZLOd+mADy8nwebNm5uaNWtaT0Qa5fWhDg/E7bPPPjPXXXedrWjEf3PlypWZeA8QOCYvDBo0yHz00Ud2nmBSQpy8PxThpG3grwieLTZs2OD6082CUbZs2dAtm3BT6d27t92RpxWapDHOpnmYhUhFBv6TEzYmLNx5553m6aefts+zBCHNSy65xOahd9hhB+dqcuCUTsvFvHnznCvhgaNNXEY05e5lvrIR4EHYnteHr2ymS5QoYd14MBrna7ly5f40HU/b+vLLb5s3jE+k+NFbxRtH4QEimFa/RHqoqlevbq688kpbbKGCA/9grNALL7xgKxgxYc7ijEY8aSlo2WuvvRJ5b/GeUXmLfVwUcEquVq2a8ywa6Cf+8MMPzfjx4827775r5syZY9twEEFC+AW/InC5jTRfeey6666mdu3atqKX+gPWmzSsM6kVPyZd45nIG4+zBqejjz/+2Plp+thyyy3t39ulSxfTvXt3TcH2wIoVK8xNN91kJ4qzSGQhl7cx5PKoNK5Xr569l5K462dBf+CBB+xklajeQ1IViEcUIHhsXNi4cbJjM5c7/bkBwWMiB2499CQzmYNNUVJJvfgBbzi/BwUKvGFp77vaaaed7I6dhnl2nXLYKBruD0JAOJIQKSA8ltVJ/OQy77vvPus6lGQfToSPv4OoD4t+FLAh/eKLL0ILFfM389/DOo97mTWQa0HB34dHMQVfWDWWL1/e+UkyyIT4FYTczVVXXWV39WkcEloQHDYIU1x44YWmQYMGmpK9EbQksCsmj0ePHie+rEJ+57zzzjM9evQwFStWTHR+J3fiQ/ii3MSQ65s0aVLgURg2b7hCPfroo/a0HoV9HmstBWBMKUmKCGZO/IB+ueuvv97uDLMAzvr169e3N+YJJ5xg34+swkLBvcFw4WeeecbmZGgdySpEBU466STbq4cNW9KjBKwzuCNRnBT1+9q5c2dzzz33BJofI5xJPpPHsmXLnKvRwN/JuCpmU3ISJHIQZzIpfpSr05QcRfVXlLCwkX9gsSNUQT4nKyFRTnkk/BG8N9980+6OveQ/0sAhhxxiKziZpp6GJnXeY/LdTMGPKtRZEAql2HAGxdtvv203LR988EGs7mXWFDZSAwcONHvvvXdsowiZEz+qQBG+BQsWOFeyy7777mtnreFMsttuuyW2sGFTEPqihPv999+3p7zhw4enPtdbHNid875THXz66afbAoakw8LPe02emzBjHOB1prKSnly/wQOYvN7dd98d6wHIpFk4gVOFzvdxW1syJX7sDFu0aGF9CMX/IDyBAOIic9hhh9mCGZLZSYN7bM2aNbaUm9MdtmPkQsQf0BfKZodJE4TC0wCbHE4+jARbtGiRczV6cm5M9M35CX8jg5Bx2EkKRJoIRWP0HicyI37sDvv162c/+GkvdPECxQ5NmjSxYogQUv0X57YJ8jpMv2BDM2rUKOvkkfZ5efnC5488DI3qbGzScrpnTcHzFjEg9xUnCCdTcONXvo/1a8aMGTZdwf2eNAh/Dhs2zNSoUSM2919mxI9+LXqXslzckC+UaDOehirA0047zb6PUYdG2bgwQYEdMB8mqjQJZWfBTDpfeK/YdVP5uMsuu6RG9ID3G4F58MEHY7eZJZSMUBFe9gNOtwy9Rvi495MKE0CorCbXHId7MRPix4eDfhQWSeEeblg+gDQNc0LEPzUXHvXzZs4l7/lK4cIPP/xgPTSZjUfuTkJXNLwnnN7ZHHDSSxPcE7mCtfnz5ztX48UxxxxjnnvuOV/yqQgf9zzDgdMAGzLaMXKWjFGSCfH75JNP7LFb+Ac3MeLHIku1ILtcjI8pnHHzoec+odGckCXvHZ6sFC/kGs7jUL2XBNhVMxD5gAMOSF0lL/fAE088YSscKfqII2wCOaXRWuQVhI/KVezZchvCNMD6gEF669atnSvRkHrx4wai2ogSdxEcnDYol6eqi/AGLRV8xV+V4gqusxj/fi/Z0DMPjHTJX3CqW7Vq1Z8ix1feN1F8KLBg2gRTP9JSzFIQNkUU65DXZU2JKwcffLBtqfF66kPsOD1iUJHGSAcbZyITTZs2da6ET+rFj/J2TFlV9Rc97IrTtIONA3grUk7OIoKjTxxyKX5DUQuh9qibuDcHYTwiFVTVemXMmDGmffv2sSvk8RM2x7y39ARGQXHEL9H23UuXLrWnChE9Ej5/YJHFSYOJE7Nnz7Y+nNiTpUn4crk9HInOPvvs2AsfUBTmRzk/Y5CwCkuz8AE+pLy3mH/HlUSLH5MctOiKNEDYmFzekCFDzHvvvWeburfffvvUnfawH6S4ib+VMGfYUSM3IHrYJXp9L6hKJ8e3du1a50q6oQiRavK4hnYTf/ITIskgeljRYVxMPyMN3WnM61GVjWUX7RlMJEnK5HXy2TRx54a+uoV8N6b7CxcudK5kg5kzZ5prr702lnn+xIofJ74khEuEKAwKWTAtzuWAyOulEXLzLIA4MFEwkhQIQXNywRTCK7zPhLKzBut03759bXV33KJ0iRU/wiVy+xBJg8pZnDAo6yf/c+6553o+VcQVPqPjxo2zLRoMXo1rC0NhMDKM39urHSAetLfeemtmW3oQPe7zuBUmJlb8CBcRkhAiCbCA1qpVy4Y38atkLExa719CXKQksF2jKZxe3KRB0RH5V69tDTm3mqzk+QqDv5/Tf5wGSSdW/FhMqIITIs6weFLuXVD04uyn6pVcQQunPZq4k+i1i+ctJ3OvxtWceF588cVEGVUHCa0P5H3jEv5MdMELTdZCxBEiE40bN7a5DibKI3pcSyMsZogcuUuqODHZZgJHEqHYCE9R8rFe4ZTDqS+JG4Ag4HVg3FZcPEwTLX7kToSIEwgcHqkYMVC9eeihh3rOGcUZhG/FihX2s4gnZxJDnDlwMRo6dKg58cQTnSvewLWG9gbxPxhJhvtLHEi0wwt9JHzosNUSIkqYrIBdVZcuXexnImpj36BB9Pj8sZMfMWJErG3JigP515dfftk0atTIl95KinuYmqK16e9wumZyC5+ToEi9w0v58uX/NLgWIgoIjw0YMMB8+OGH1n+TSQtpFz6qrJlnR38iHpVJFz5qB1566SXfhI+Cn549e0r4CgHvX3KqUZPoTym7NZqChQgTFsgjjzzSvPLKKza0iV0VRRJpc2PZGCI8jzzyiGnQoIH1HE1DBSMbaPrv/BI+wLqNU6QoHArAoramTLT4cbNiF5T2nbaIB+SEzjjjDDN58mRrzYU3JT16aRc9Tnb8vUz/x50Fv8a4VOx5gVM7TfeIuV9rCK/V/fffr8Ham4E8Ma0kUZJI1SjYLFqmTBnTrVs355kQ/kJbAnnl66+/3hpNM3y0YcOGNuqQdtGjR+2tt96yhSzYks2aNSvxIU6gAIlRaPxtDML2831khBctHqJo2Dwx+T3KgiBP4sdNE8UC8Oyzzzrf/fE73HDDDWp7EL5CAcvpp59uZ0VOnz7d3mNZGZpMiT5DW0kpMMz4zTffTE25Pif1W265xfTv39/3fktyfaNHj45VIzfizsalc+fO1qYtTjUSGCFEaXfnqdoT9WaR+OGHH5wr4cAbiGEq8Xrg92CRwkInqxZCwjucCGrWrGkXfRYMFo4shdQ51fG5Ip/3xhtvpG7Q6r777mvuuusum68N4n2lwZ+Bt1TBRg1rIyHqjh07/rlOAvnIhx9+2Obc4jBWic0VRgB+b0QCH2aL6Bx00EFm/vz5zpVw4LTXo0cPc/fdd/95E7Mzpb+K5HUa8hEiHLiXqPYjlHnNNddYCzJye1FENKIC0VuwYIG56aabbG4vbaKHyw4jou69916bJgkKIgQIa9QwgglBKWyQLCdUDAkwXojajICxXYSf2XT6SSitDkybDhvEjbAFH9Sc0NFcPGjQIFOnTh37XIiiIGdXt25d6+bB4M2RI0fa0v0s5PJyECWZO3eu3TTWrl3bbhzTJny77babbapmbQhS+FiHKHSJmmrVqllHoaImqHNgII87duxYs+uuuzpXo2H9+vV2LY8Cz+JHI2cUUE1FU3FBp/AddtjBlp9zwwuxMWyQaElgTM2MGTOs23737t3NNtts4/yLbECUhJMeITEqHtM4aof3mtD11KlTba4r6A0NhRvkRqMEcadfkVRUceC9x28z6tA+kz+imPfn+a8mXBQV7NhPPvnkv4Q5yQdy5E/rbDSRPyx85IPJY5Fkf+yxx2x4M4swW49KRxa+p556KpW+k+RuaaLGqozNThhQCRvlqRmx5+SZr+Uj9nv33HOP8ywayJEuXrzYeRYensSPRYUEb5Qu9dx0LVu2/MvOgd/ptddeUwVohmExaN26tXWRZ8FnmCj5GKyVspTPy0GhA6GuihUr2mrpsC0Jw4LQNada3nvugbCI+vSMrR7h63zvbf49ETROyVHSp08f57vw8FTwApT1kvf7+uuvnSvRcPbZZ1ubKRY34DT43nvv2Q8BXqAi3bABI9zD/DgS+eyAGUmTpWrNjUHgqN7s1auX3STGqQTfb0qWLGkHz7IOUOAS5gYHpxImeNDjFwXVq1e3RSNuT7mslfwN/P+Qg4sC/ttYBPpFKAUv5EsoHIgaGiYJbeWql7j5qUQlBh5FUY4IHnIcnOYoX3/33XetYzzJc0I5hL2zKnyU3HMSYRL5EUccYU+/aRU+PuekXhgdRS6XTVCYwgcs2lFZdXGPX3HFFZ7Cu7xeFSpUMJdeemnor10OHF8wuw4Tzyc/wO+PFy4O8EEgl1GwEIdFkVLnJI9bEX9stMjVEdrCi5HNDcVNXI/qQxsn2LWT56KyETeaNJ/0ABPxyy67zLRt2zbSwdZMKI8qb0ZVJ8JPsZ9X2DTRCxnFCRYRv/XWW+0sSD8IvM8vx8KFC83hhx8emyGFCB8l7LkqL471H3/8sT0ZckIQyYDCBcSOewv/RQalsuAR4pLY/Q8+dxTx0LjM7jmNRSwbw2cb15199tkn1NzexrDBaNWqlTU4jwLaFTjh+wUbJ6qACxYRhgVzFAu6d3khNPHjheIXp2Q1LnAawPPzqquu+nNuFDO2SO4yhiWK0to4QpPpIYccYosE2Pn9fj+E6pKDiNFUTq6WUxw7z/3228+G0jnZ5WbjSez+CgJHtTOFPDh2pGHCQnGoVKmSNSPAYDxK0ctBPUHTpk3/0nIVFhiNYw/mZ6sOazlN8oQhw4b3dt68eb6kK0ITP0BQGO0StyoybhBOgbmmTxaNG2+80eaJ0h4WKg4kmnHoQfBw6+fm45TMCYLyY2a3IYi5h5tybgoQEDceiC12SwgdlYdVqlSxpzsEjxyeRK5ouGd5vzDYjotFVRhw75x22mlW+Lhv4gIeqC1atIjkpESdg5sKz81x+eWXRxLG5T2mQZ9Gfa+EKn4sjLQYsIDGDRZVxI5KsNwu6cknn7T5gqirVKOGkA19kYXB+8qpgteJr4gh32MyUPDBoow7CrkHHogc1Za5rwgeSXm+ctIT+YF/LgtDv379bDN1VFV5UcBiiDUZxU1xOO0VhHWFiR9hQ+ifjWoQhh703bEhJRIUJpz4CN9zqvcq6KGKH7Ar4yaNI3xomL9GPwk3DC8ui0mHDh1C9yaNEw899JBGQsUYNhpULBO9IDSdhXxeDk4CRJOuvvpqu4GKG6RO2rdvb6NeYUM7z8CBA21UxW+4x5o0aWLdccKGgpfbbrstFPHztRacBPTuu+/uPIsXvKFMV6YYhpuGE039+vXNRx99ZPOAUTbqRwUbggsuuMB5JuIA4TOMpmlKZ1NC7yICgAdnVoSPEwA5X+zn7rjjjlgKH5ACWLZsmfMsXCjeC0L4gHWhU6dOkaQgPvjgg9BCyL6e/IBwIrOj4g69f8TMKargzSZxzC4uikRvVFBMkpVCibjDB56865QpU2wYjd68LEKKgiK1JEQjvv32W2sTRyogTCgMYdO+qU1B7j768ssvbREO6Qiu0feKiTXV0sUpIKNvkX5ZNmFhwppE2JVKby+EfvIDktKUpccdcpOU0HPy4eYln0AbBDuqKHY8UUCYWkQP9mv4MlL007x580wKH5EXNs040nTt2tW5Gm9yOfCwIR9HLr0gRAVoe2D9Iq3D4GV6YalEZWYeUS6iXlRTMw6OE1ZR0PTOPMuwoW2HTUUY+C5+FD2wc/Oz/DYoqEzFAJf+MUrG8QLFIo2CAqoQ0wzhNPIGIjqoqD3nnHOsFRsVdpgwZCmnlyMn+BSPcDpJyuaT01cUYOGXawfgVMckG4wfaDcbMmSIdbnixMe9RF6SB6F0wrTcY+SP2fjTH0jRzKbgPaCAMWz4ncOaMei7+PGikSyN0ionH7h5CA+w60QER48ebV1isCwihEsYJm2QK2AQsCZfhAv3Gr2m5JwJtxMyw5GFcThZ6ztlbeAUwueNxmZOvV5DXWETRWU7ooeRP3Av0epAtI38aD6tW1Ry0pdNjy8ONYjjxnCPBpVXLAzEj78rDHwXP+AmZoQ+R+6kwJuPDRo3EjsrwgJnnXWWLTRAyCktTgMsOvyNPJKwOUkDtIJQWcxJmwWfYgJM1ym6yiKMHaPKmPwm3qNJiBJtiiga22kjos2ld+/e9l7yOqEDEaS6El/UjVsb2JxFYRvH68pGMWh8L3gpCGEd4s1Rj8p3A2XWtEYQH6dBnpMgIVHKzpPcG8ipdsSIETbxLYKDDy8ng1GjRtmBoUxVSOsYoeJSunRpm5MiykJVeNI3X2yOWQ/ChNwo6Rm/jbR5LzhF0mdH6go4EHD6wyc2TKhFIHWWC+26IZKCl4KQdO3bt2/sGlOLA7t1dlXHHnusnfZN+JO/hdEh5Gdo1k4axPlxBpHwBQd5FYbmcsqj4IDN07Rp0zItfESCTj31VBvivOWWW+zJLw1Rhyg2wdxHQUyQYLM2bNgw26edC8HzvnH6C5uwpjsEKn7AAE0q2ZIogEDlEWNyyAeyG4Gbb77Z7oauu+46W0EV91wFCw3DKtmlBuEIkXUoLaffi4WD/jQiBkwWodw8y/CZJ2rCfYdhMgtpUteBTRFWVWKY0GaDvWGOKMbBMSgh8WHPHByfqeQitpz0ajbCDtikkbeh5BhhefXVV+2uKTc1PE5/I0Ut9C8i2H6MPRF/wO6YUvcZM2bYohUMFLIe1syBwDFtgenifFbSaiDB35jGQdmkRqh4x4YwiikPhMfpL/RyqAjd3qwoEECKYKigTENlGx9oTlN8wCkJJk5ObhOfTMKl5AjDqlraFMTLiddzGsHcOw1hpqhhAaAPiSIohsXyPkc1xDTOYBxPr97GvWhpg3YoJmukDSo8Se/Q5E7vING7MDf0/Pc5RKRG/ADRw0uTRSPMnUSQ8EZRLsypFhFEFBEa+mnI9bBIcjrAfT+MUUHsuikmwA+RXbdMpL2Tc8ygF5R7l7BQWu7fIKDsnkrEtEMKIcnFb0VB9SfFL1S90yC/qVaIIMHI3UubRezED1g0sC6iuTxtCwgNuvfdd5/N+eQqphBCwmGcAmlGfeCBB2wVIDcTuyk/XgP+G4guYVgKWrA/inseMs7k3hOKVwhpU31GTi/sBSCpZEX8KHqLywBvv8F4YfLkydbBpk6dOqFs3AvCYcFLC0wsxQ84AVL1RaN1GhcUhKh169a2QIa8QEEhYmFF9Pi7+eCQJ+Qmw9aJG41G1dwD0eRr7jViJ8SD3B1xcT58tJLgEsKMM36m8KZ7eG94T2hLoJgJu7uwP/RpIAvix73CZzCfxvIkwRrGmkTNAFX7YeezCXvmDhBuiK34AQs6s8lwF0jrDcTOhdMYrvyIYVFuMWwIuMEQxtyDa3zlOuHM3AMx5f+bG9RLL4z4AwSODQhFSyNHjrQfvDTkpaMiC+LHmsXmM2xRCBNadmrXrm0nu4f9dxJOptfaLbEWP2Bhf/311201UZTFIUGDYGEUy8RnjLRpmxDRwr03ffp0K3hM9GCax++fBeenwgtZED82R2xm07pxB6qYqfxM68kv0mMDooAgkFeJwkE8LFhoV65caR1iaDSnF4yQaBY9HaOE9wEz4osuush6SWLsS/SBploJn8gHIi5EXtIMoV0+F7kceJiEEdGK9ORXEPo6mOI7ZsyYSF7sKED8qRRt1aqVLZIhvJD2D1SYcB/hg0iBEbMbcRhhGro2HMGias90QO8qleOq9gwBFip24kxv5vssQWKZUyGO7Y0bN7bOMYijyB92q5zw2EjxoIAljYVVcSUr4pfWPj+groBWLaousXgkahIW/Ldxz/FSsZ448QN25TRY4olY0GYnK1Ctyaw98oLM56JBvXr16p5uhCyAIz2CN2HCBJtHxn4uaxuouJAV8Uurwwvgv4r44fRCz1+Y0biwHF5iVypIrJd5gCximOFmbdHnJmM3+dprr1kLNVwWcGq58847bcMpvWdZD9vxGvEaUCTFWJzLLrvMVqUxQovqYT60Ej4RFNx/fA7TvDZRpU41a1jjhQpCODmMlq1Y1snzh1NJhTkwkxTKli3r/CR70HfGKebKK6+0p0Ea6VnsqVCkYIYPYdg3ZxTkFhw+jJzscK/ZeeedbagYCzea0Pm5EEHBPciGi3YYNqRRDLMNA9ZfnLjIufG5ChuiBmGIX+zCnpuCajxOQTQdq1jhf2BdxjDQ5s2b2xMiJck0wJMrDOPmCRreawQN/8yJEyfa6QBMn1bjebxJW9gT0SOsTlU69QhYF6YZCu94Dxlki8gTcQoTDCZ69erlqeIzkTm/wmC+HtZh2IMppLVpmNNH9SiT6MkXErZImusLiXV6p/BDRewIa5LL06YnOaRF/HLRBoYR40a1ePFi5yfphipPCu849bGe4DwVJlRmn3zyyZ7WrVSJH3Az0i9HyItToCgcdk2EBSmWYeL0KaecUqTDTJTwvjIeqE+fPnbKPMluNjhcF+5h40N0IGz/yTSIH/fe4MGD7YSKLM1lpKmdlAotV4jgaaedFnqkhSgP7RVBi18sc36FwYtBMpTQF4skrili03BSonBm0qRJ1lWGUyDtFAynpMl76tSpNmcYhT0TwrZ8+XIzcOBAO+yU8AoVrvi9zp8/34aYJHzuYNODKfFzzz1n338NL84P+ssefvhhG/rr3LlzpoSPzyCCl+uvw9szbOEjZcN6EEa0KlEnv4LkTgsUO1AUoz6u/ClZsqQtJqJkm3FMFNTQu0SZMz/z6wbEOoy8Lad1dnUIHPZFv997zr8QXsEHEZNzWoRw4c9ZQ/Ge0tgfJkk8+bGWMGnm0UcftdGlrG2+qlWrZnti6S/mc8/fTy0BrQ5hwomTcKvXKFXqwp6bghPOe++9Z+fXcZrRicE9nBoQPR4IIKKYE0N2wjyYHlFYIpr3gvwABQEIHIsgD8SPptU0mwBHBXle+rAIT7GAbeyKIfErHNYKHFqIQOBjSTQii+tHzuaPz3puw8uJlyI6XpMw4fTJ+uG1jSQT4gfcsITKSEwTow87QZt2uBHJHfHghMENypRunnPCYLfGIkLDLyLHiY4CJRWpBAehTcJy2OIhgIVtSCR+m4b1gt5ZhhPTPpPFe5Xw4uWXX27TIFSJF4TXpU2bNqE6uwDFei+++GKh93NxyYz45UAEWXwfeeQRO4UYEdRJUKQFFiis7xiRhRFEcYZ9Svz+Bws5Qjdo0CAb3iT0njXYsJL3J1JAxIBIzsbpDV4nQp4UvoRN79697fBorymXzIlfQYgbI4KcBinsECKJsAgQbmYxYmgxBUL5IPH7IxxPQzqmGTyyGBli43TkkUfaaAFfizLQp9oahxeKf8KECNPw4cPN8ccf71xxT6bFDzj1kXuieovq0LDfTCHcwuK0//77W8E77rjjbGWzm91wlsUP0SN/RMsCcxuzuAkmOkAokdBmo0aN/pYT3hRYBFJ5HTYlSpQwc+bMsS1aXsm8+OXgGD937lxz8803m7Fjx8ohRMQWTH3xKGWxomqzqB16cciq+BH5oW+Ulo8shje5b7D+u+222+w9kM+EmEqVKkVi2M2MTdor/KA44peoPj+38MazkPBBoDKUsv7i5EuECAMWKvIwLFRU1w0ZMsTeo16FL0sQ5aHdiUW7e/fu1ui8f//+mRM+CtBoecEViY0+91E+wkeaiLBnFOQb0vdKJsQvBxVElINPnjzZTJ8+3U6Rp2pRiLAhhEmYh2rNN954w0Ym6NGT4OUPkR3Cm926dbPtORS7Za3vlypswuP00tKbh7NTvmFybAUvvfTSSIoEyfch2mGSKfErCGEZdjl4SFI9V5xYuBB+gOsKLTnz5s2zJeX4Jwp3YJ7QsWNHmx8lt5dFCG+ymR81apQNHboBwcMwhAb/KGAjyNDcMMms+AE7I8JN999/v12IKLPNOWMI4TfNmjWzpzxc8tlh05/npohFGHvSw6+WRuxnnnkm0y1NhHYZdeblXqIClr7HqF5H+lbDjsJlWvxyEBPffffdrUsMHyrcDnA5EcILhNm5r6g2ptSe5l0q7ig799rEm0UIb7JJJbxXr149M3r0aGumkHV4Te655x7Xjfo4L/Xs2TPSaniqmsMmE9We+cLuhxuBoan0CrJTl3eoKA7svnHAoS+PcFzNmjVtY3FUpKHak88jYT1m6THiSkOL/w4RK7xJaV7P5wTIaztgwADb/xcVhDwpVPIz6qZWB49wY/z++ljxe/LJJ+1OM4tl02LzIHAMFiYUhwsLYag4nO6SLH60JL311lvWuB5DdAoyROHg1kKxSz6vPTUPuAVFuaHgv8/a6mcKQOLnI4RcCF2NHDnSmuB+/PHHzk9ElqG6EMFjeDCT9KM85W2KJIofnzXK9Ek/YFbPBlQUD97vV155pVijrGgob926tS0aigoEj9YePkN+IvELAE6DzKPjw4lH4LRp0/ThzBB8WJmLiBN+27ZtbaUmiXo/d61+khTx43PFyY42JArQ+FxpCog7qPikp5mN2abuS3KDb7/9tr1/w57asDHcJxMmTLAm234i8QsYPrAkmxFBju2rVq2Se0wKYQHhw0njNH15Z5xxhp2DmASSIH5MmmfoMo4sLMp8roQ3CLtff/31plWrVnY2HiF4TtRUdXLSuuuuu+wklqi57rrrzFVXXeU88w+JX4gwIoU+G3oHaTRlOKZINiTiWcSpLkT0KMdOGnEWP0SPXT/VsBK9YOB9OOyww6wYUlTCJiMK67JNUb58edv6wwnVbyR+EYGvIHF3imT4XuGb5IDZAfmSM88805x00knWKSPJritxFD/SBOPGjbN2bthwZXGWnjDm3HPPtdX0QRSGSfwiBtFD/HBIJ0fITle72/hBnyd5PE53vXr1suKXFsefuIhfLqf3zjvvmPbt29tJ4SK70EfNqQ9nniAojvip0zZAODFwciDGzoedStGGDRuqgT4GkMfDYYVqN8zOGXKKEXLlypVldecjiB4nPUaK4auLhZWETxBZCUr4iotOfiFDiAdXCsI+tEwQg6d6VIQDs8IYGdSmTRtrjUVrQlwrNf0gypMf9zlVhzSnMylAUQ8BRFoId1epUsW54j8Ke8YYFgJcY7799lvrXoH1FXlC5Qf9h0GwlHXjGo/jCifvfMa8JJkoxI/GaZrSma5A2J8qw6xBHou5eEuXLnWuiBwXX3yxzfcGaQIh8UsQiB6lx+yaKZQZM2aMLNU8gKcmlk24rmBezsiXrAheQaIQv3LlytlNXRZFjzmhDCLG2o4xPYT2yPWLP2AjikUdbjRBIvFLMN99950NDZAURggJG9FOITYNfXi0IpDDQ/BwW4mDvVjURCF+WQTBb9eunenUqdNf3FXop7vhhhsU8v0dPo/4j5566qmBpxokfimBKjksiAiPjh8/3oriihUrMrmzzsGumpxBrVq1bA6vQYMG9oTHdfE/JH7BgtBhekDZPvffxos6BvkU+RDRyTq4Ig0fPjyU0UUSvxSC4H3xxRdm/vz5tkGYSsWFCxdmoqmeYpU6derYpl1GAyF+VGzqhFc4Er9gYHIHgscoHiqEi7oHid7w77Ic/kTwMCkn5x4GEr+Uk+udIkSKAHJzUWwwd+5cK4ZJD7VQiUkok6rMY445xtqLlS5dWq0IeSDx8xds7QhvXnDBBfbUV5yNFxvWa6+91jz44IOZbehnMgevW1gbVYlfhkEM8RvFIJiKs9WrV9t+K8Qybh9AQpUUCmAntueee9p+MCozCRepJ9IbEj/vEMrEiuuss84yvXv3tsOI8wXP3+OPP94ad2cN0hL0OIcZoZH4iT/5/vvv7Ylw9uzZVhgXL15sRzSRk8iJYhhQcUnlJaJG2JJ+MCriDjroIOvxp1Odv0j83IPoUZVIQ/all15q71kvhRp85hACzKWzAiFhvI7dbBi8IPETRUI4hipSerH4ShENI074fuXKlTZHwY6VNgzaLjgxEkotKpyKuPHgNMcDlxsWkKpVq9oTHeNWEDw+FH5ObhabRuLnDqo3u3btas477zx76vMDPjf083bo0CET/bxYBvL3kqMPG4mfcE0un4hLR+6xsQDmhJEHQko+DkEjhMmDEx6Jbp3mokPilx/cr5dddpltWeB+9hs+J0yxYIxPUZvIpMPnnzwfTkpRIPETgbKpD2/Q/TsiPyR+xYNTytVXX20LWYhWBHkfs4Fk1t4999zjXEkX5PZuvfVW6+QS1XpQHPFTjbhwDTf2xg8hkgRz7lio2SB069bNnliCvo8Rh2uuucYW0KQRXkdcbuK+Hkj8hBCZgzweJy+MI3r06GFDnGEu1ojsAw88YGdGpgVeP8LFnGrDrOx0i8RPCJEZaE6/9957bQVily5drAhGdUKhAnLgwIHm7LPPdq4kF8SOilhml5LrTwISPyFEqkHc6B/lpIUjEobnuAVFHZbjv09vK4UhhAqTas1HQRuiRyN/2C0NXlDBixApJssFL5xGGCaNDRmnK9xZ4grFY7fffrsNxdJ3mxQoFLr55ptt+0acQp2q9hQi42RV/OglZUFmgoBffXph8NJLL9mqU3pv4w6v8X333WcOP/zw2OX4JH5CZJysiR+uQTSnM2mhTJkyztVkwQQX8mcY18fRC5RwbcuWLW0YOcqcaVGo1UEIkXpwFEL0OIUwOoicXlKFD5hFOWLECNOrVy87pzIuIHKEjsnvPf3007HIm3pBJz8hUkyaT36IHjP0KK9H8JK8EBfGp59+ah1nxo0bZ3766SfnavhQmHPiiSeaO++8M9a50xw6+QkhUgcih+hhE/bOO+/YloU0Ch9Qpfrss8/aqQjMsgw7t8YGg9mZY8aMMY899lgihK+4SPyEEImBUNuTTz5pZs6caas4s2COjuA1bNjQTJ061Q7GDcMoms0EeT3yjoxGI4KQNhT2FCLFpCXsycT+/v37myZNmljBS+tJb3PQEoE59tdff203Affff79Zt26dveYVTnk0qNNygfDheoPwJvG1VrWnEBknyeLHokuf3nXXXWcn+WsE1t9B+L788ksb/h01apSZM2eOWbVqVbHyg0ywwNuUe+SEE06wMzU5WYfhbxo0Ej8hMk79+vXNRx995DxLDizEuJ4gel6HyGYF2iIYWs2pkFmcfF27dq0dnotI0pDOnELaE6iGxY2F51xPGxI/ITJO48aNrY9lUuAU0r17dyt6cSrzF8lC1Z5CZBwm6Mcd8kqI3pAhQ8zrr79uTj/9dAmfCByJnxAp5sADD3S+ix8YIterV888/vjjZtKkSaZ169YKcYrQkPgJkWLiKH5UFZKLfPTRR23/GFZkCKEQYaKcnxAphgIIhAankKhB9GrVqmWuuuoq07x5c1tVKEQQKOcnRMbBlgqj5yhhTl2NGjXM888/b9566y1rkyXhE1Gjk58QKWf16tXWFeTzzz93roQDosfYmzvuuMMceeSRzlUhgkcnPyGEbVy+7bbbnGfhQJ8es+lovpbwiTgi8RMiA5x88smmffv2zrPgQPTwgmQKQdOmTWM35FSIHAp7CpERsLzCxgqDZL+pWbOm6dOnj6lbt67Zdttt1a4gIkVhTyHEnyBKNJG3bdvW5uO8QnvCoYceaiZPnmxmzJhhv8+y6bRIFjr5CZExfv31VzN06FA7mNRNC8TWW29t83jM0cM+jedCxAl5ewohCuWzzz4zTzzxhB2WumzZMudq4WCE3KxZM5s7bNCggR1/I0QckfgJIYqESQC4/xO2JHw5d+5cs3LlSvP7umCLVXbZZRc7NZ1hqkz0ZrK4Tnoi7kj8hBBCZA4VvAghhBCbQOInhBAic0j8hBBCZA6JnxBCiMwh8RNCCJE5JH5CCCEyh8RPCCFE5pD4CSGEyBwSPyGEEJlD4ieEECJjGPP/OoT9igq2DH0AAAAASUVORK5CYII=;" parent="1" vertex="1">
          <mxGeometry x="463.85999999999996" y="277" width="43.38" height="46" as="geometry" />
        </mxCell>
        <mxCell id="LpF5Ccz4zrVWc6uUfBFL-16" value="" style="shape=image;verticalLabelPosition=bottom;labelBackgroundColor=default;verticalAlign=top;aspect=fixed;imageAspect=0;image=https://cdn.vectorstock.com/i/preview-1x/02/73/air-manometer-icon-simple-gas-pressure-vector-39330273.jpg;" parent="1" vertex="1">
          <mxGeometry x="507.24" y="277" width="46" height="46" as="geometry" />
        </mxCell>
        <mxCell id="LpF5Ccz4zrVWc6uUfBFL-22" value="" style="edgeStyle=orthogonalEdgeStyle;rounded=0;orthogonalLoop=1;jettySize=auto;html=1;" parent="1" source="LpF5Ccz4zrVWc6uUfBFL-20" edge="1">
          <mxGeometry relative="1" as="geometry">
            <mxPoint x="268" y="383" as="targetPoint" />
          </mxGeometry>
        </mxCell>
        <mxCell id="LpF5Ccz4zrVWc6uUfBFL-28" value="" style="edgeStyle=orthogonalEdgeStyle;rounded=0;orthogonalLoop=1;jettySize=auto;html=1;" parent="1" source="LpF5Ccz4zrVWc6uUfBFL-20" target="LpF5Ccz4zrVWc6uUfBFL-25" edge="1">
          <mxGeometry relative="1" as="geometry" />
        </mxCell>
        <mxCell id="LpF5Ccz4zrVWc6uUfBFL-20" value="&lt;b&gt;&lt;font style=&quot;font-size: 17px;&quot;&gt;CAN Bus Network&lt;/font&gt;&lt;/b&gt;" style="shape=process;whiteSpace=wrap;html=1;backgroundOutline=1;" parent="1" vertex="1">
          <mxGeometry x="208" y="267" width="122" height="60" as="geometry" />
        </mxCell>
        <mxCell id="LpF5Ccz4zrVWc6uUfBFL-24" value="&lt;p style=&quot;line-height: 0%;&quot;&gt;&lt;br&gt;&lt;/p&gt;" style="sketch=0;outlineConnect=0;fontColor=#FFFFFF;gradientColor=none;strokeColor=#232F3E;fillColor=#ffffff;dashed=0;verticalLabelPosition=bottom;verticalAlign=top;align=center;html=1;fontSize=12;fontStyle=0;aspect=fixed;shape=mxgraph.aws4.resourceIcon;resIcon=mxgraph.aws4.car;flipH=1;labelBorderColor=none;textShadow=0;labelBackgroundColor=#000000;shadow=1;" parent="1" vertex="1">
          <mxGeometry x="218" y="153" width="60" height="60" as="geometry" />
        </mxCell>
        <mxCell id="LpF5Ccz4zrVWc6uUfBFL-37" value="" style="edgeStyle=orthogonalEdgeStyle;rounded=0;orthogonalLoop=1;jettySize=auto;html=1;entryX=0;entryY=0.5;entryDx=0;entryDy=0;" parent="1" source="LpF5Ccz4zrVWc6uUfBFL-25" target="LpF5Ccz4zrVWc6uUfBFL-11" edge="1">
          <mxGeometry relative="1" as="geometry">
            <mxPoint x="408" y="203" as="targetPoint" />
          </mxGeometry>
        </mxCell>
        <mxCell id="LpF5Ccz4zrVWc6uUfBFL-35" value="" style="edgeStyle=orthogonalEdgeStyle;rounded=0;orthogonalLoop=1;jettySize=auto;html=1;entryX=0;entryY=0.5;entryDx=0;entryDy=0;exitX=0.5;exitY=1;exitDx=0;exitDy=0;" parent="1" source="LpF5Ccz4zrVWc6uUfBFL-32" target="LpF5Ccz4zrVWc6uUfBFL-20" edge="1">
          <mxGeometry relative="1" as="geometry">
            <mxPoint x="124.27500000000009" y="336.2750000000001" as="targetPoint" />
          </mxGeometry>
        </mxCell>
        <mxCell id="LpF5Ccz4zrVWc6uUfBFL-52" value="&lt;font color=&quot;#ffffff&quot; style=&quot;font-size: 20px; background-color: rgb(0, 0, 0);&quot;&gt;CyberCAN - In-Vehicle Network and Attack Simulator&lt;/font&gt;" style="swimlane;whiteSpace=wrap;html=1;strokeWidth=3;" parent="1" vertex="1">
          <mxGeometry y="20" width="740" height="510" as="geometry">
            <mxRectangle x="-280" y="620" width="510" height="40" as="alternateBounds" />
          </mxGeometry>
        </mxCell>
        <mxCell id="LpF5Ccz4zrVWc6uUfBFL-55" value="&lt;div&gt;&lt;b&gt;Spoofing&lt;/b&gt;&lt;/div&gt;&lt;div&gt;&lt;b&gt;&lt;br&gt;&lt;/b&gt;&lt;/div&gt;&lt;div&gt;&lt;b&gt;&lt;br&gt;&lt;/b&gt;&lt;/div&gt;&lt;div&gt;&lt;br&gt;&lt;/div&gt;" style="rounded=0;whiteSpace=wrap;html=1;strokeWidth=2;strokeColor=#f10909;" parent="LpF5Ccz4zrVWc6uUfBFL-52" vertex="1">
          <mxGeometry x="12" y="57" width="100" height="60" as="geometry" />
        </mxCell>
        <mxCell id="LpF5Ccz4zrVWc6uUfBFL-48" value="&lt;div&gt;&lt;b&gt;Plateau&lt;/b&gt;&lt;/div&gt;&lt;div&gt;&lt;b&gt;&lt;br&gt;&lt;/b&gt;&lt;/div&gt;&lt;div&gt;&lt;b&gt;&lt;br&gt;&lt;/b&gt;&lt;/div&gt;&lt;div&gt;&lt;br&gt;&lt;/div&gt;" style="rounded=0;whiteSpace=wrap;html=1;strokeWidth=2;strokeColor=#f10909;" parent="LpF5Ccz4zrVWc6uUfBFL-52" vertex="1">
          <mxGeometry x="22" y="77" width="100" height="60" as="geometry" />
        </mxCell>
        <mxCell id="LpF5Ccz4zrVWc6uUfBFL-50" value="&lt;div&gt;&lt;b&gt;Replay&lt;/b&gt;&lt;/div&gt;&lt;div&gt;&lt;b&gt;&lt;br&gt;&lt;/b&gt;&lt;/div&gt;&lt;div&gt;&lt;b&gt;&lt;br&gt;&lt;/b&gt;&lt;/div&gt;&lt;div&gt;&lt;br&gt;&lt;/div&gt;" style="rounded=0;whiteSpace=wrap;html=1;strokeWidth=2;strokeColor=#f10909;" parent="LpF5Ccz4zrVWc6uUfBFL-52" vertex="1">
          <mxGeometry x="32" y="97" width="100" height="60" as="geometry" />
        </mxCell>
        <mxCell id="LpF5Ccz4zrVWc6uUfBFL-53" value="&lt;div&gt;&lt;b&gt;Fuzzing&lt;/b&gt;&lt;/div&gt;&lt;div&gt;&lt;b&gt;&lt;br&gt;&lt;/b&gt;&lt;/div&gt;&lt;div&gt;&lt;b&gt;&lt;br&gt;&lt;/b&gt;&lt;/div&gt;&lt;div&gt;&lt;br&gt;&lt;/div&gt;" style="rounded=0;whiteSpace=wrap;html=1;strokeWidth=2;strokeColor=#f10909;" parent="LpF5Ccz4zrVWc6uUfBFL-52" vertex="1">
          <mxGeometry x="42" y="117" width="100" height="60" as="geometry" />
        </mxCell>
        <mxCell id="LpF5Ccz4zrVWc6uUfBFL-54" value="&lt;b&gt;Denial of Service&lt;/b&gt;&lt;div&gt;&lt;b&gt;&lt;br&gt;&lt;/b&gt;&lt;/div&gt;&lt;div&gt;&lt;b&gt;&lt;br&gt;&lt;/b&gt;&lt;/div&gt;&lt;div&gt;&lt;br&gt;&lt;/div&gt;" style="rounded=0;whiteSpace=wrap;html=1;strokeWidth=2;strokeColor=#f10909;" parent="LpF5Ccz4zrVWc6uUfBFL-52" vertex="1">
          <mxGeometry x="52" y="137" width="100" height="60" as="geometry" />
        </mxCell>
        <mxCell id="LpF5Ccz4zrVWc6uUfBFL-32" value="" style="shape=image;verticalLabelPosition=bottom;labelBackgroundColor=default;verticalAlign=top;aspect=fixed;imageAspect=0;image=https://t3.ftcdn.net/jpg/02/02/62/32/360_F_202623227_ZVtUHUMF76wC80GUepEzwLu6kzn77qTW.jpg;imageBorder=#ff0f0f;shadow=1;strokeWidth=6;" parent="LpF5Ccz4zrVWc6uUfBFL-52" vertex="1">
          <mxGeometry x="62" y="157" width="100" height="100" as="geometry" />
        </mxCell>
        <mxCell id="LpF5Ccz4zrVWc6uUfBFL-38" value="&lt;b style=&quot;font-size: 17px;&quot;&gt;&lt;font color=&quot;#ffffff&quot; style=&quot;background-color: rgb(0, 0, 0); font-size: 17px;&quot;&gt;Data Logger&lt;/font&gt;&lt;/b&gt;&lt;div style=&quot;font-size: 17px;&quot;&gt;&lt;font style=&quot;background-color: rgb(0, 0, 0); font-size: 17px;&quot; color=&quot;#ffffff&quot;&gt;&lt;br&gt;&lt;/font&gt;&lt;/div&gt;&lt;div style=&quot;font-size: 16px;&quot;&gt;&lt;b&gt;&lt;font color=&quot;#ffffff&quot; style=&quot;font-size: 16px; background-color: rgb(0, 0, 0);&quot;&gt;&lt;br&gt;&lt;/font&gt;&lt;/b&gt;&lt;/div&gt;&lt;div style=&quot;font-size: 16px;&quot;&gt;&lt;b&gt;&lt;font color=&quot;#ffffff&quot; style=&quot;font-size: 16px; background-color: rgb(0, 0, 0);&quot;&gt;&lt;br&gt;&lt;/font&gt;&lt;/b&gt;&lt;/div&gt;&lt;div style=&quot;font-size: 16px;&quot;&gt;&lt;b&gt;&lt;font color=&quot;#ffffff&quot; style=&quot;font-size: 16px; background-color: rgb(0, 0, 0);&quot;&gt;&lt;br&gt;&lt;/font&gt;&lt;/b&gt;&lt;/div&gt;&lt;div style=&quot;font-size: 16px;&quot;&gt;&lt;b&gt;&lt;font color=&quot;#ffffff&quot; style=&quot;font-size: 16px; background-color: rgb(0, 0, 0);&quot;&gt;&lt;br&gt;&lt;/font&gt;&lt;/b&gt;&lt;/div&gt;&lt;div style=&quot;font-size: 16px;&quot;&gt;&lt;br&gt;&lt;/div&gt;" style="rounded=0;whiteSpace=wrap;html=1;" parent="LpF5Ccz4zrVWc6uUfBFL-52" vertex="1">
          <mxGeometry x="148" y="363" width="280" height="137" as="geometry" />
        </mxCell>
        <mxCell id="LpF5Ccz4zrVWc6uUfBFL-19" value="" style="shape=note;whiteSpace=wrap;html=1;backgroundOutline=1;darkOpacity=0.05;" parent="LpF5Ccz4zrVWc6uUfBFL-52" vertex="1">
          <mxGeometry x="181.73000000000002" y="403" width="60" height="70" as="geometry" />
        </mxCell>
        <mxCell id="LpF5Ccz4zrVWc6uUfBFL-23" value="&lt;font style=&quot;font-size: 13px;&quot;&gt;&lt;b&gt;Normal &lt;/b&gt;CAN Data-Log&lt;/font&gt;" style="text;html=1;align=center;verticalAlign=middle;whiteSpace=wrap;rounded=0;" parent="LpF5Ccz4zrVWc6uUfBFL-52" vertex="1">
          <mxGeometry x="148" y="473" width="140" height="30" as="geometry" />
        </mxCell>
        <mxCell id="LpF5Ccz4zrVWc6uUfBFL-39" value="" style="shape=note;whiteSpace=wrap;html=1;backgroundOutline=1;darkOpacity=0.05;fillColor=#f8cecc;strokeColor=#b85450;" parent="LpF5Ccz4zrVWc6uUfBFL-52" vertex="1">
          <mxGeometry x="328.00000000000006" y="403" width="60" height="70" as="geometry" />
        </mxCell>
        <mxCell id="LpF5Ccz4zrVWc6uUfBFL-40" value="&lt;font style=&quot;font-size: 13px;&quot;&gt;&lt;b&gt;Attack &lt;/b&gt;CAN Data-Log&lt;/font&gt;" style="text;html=1;align=center;verticalAlign=middle;whiteSpace=wrap;rounded=0;" parent="LpF5Ccz4zrVWc6uUfBFL-52" vertex="1">
          <mxGeometry x="293" y="473" width="130" height="30" as="geometry" />
        </mxCell>
        <mxCell id="LpF5Ccz4zrVWc6uUfBFL-9" value="&lt;b&gt;&lt;font style=&quot;font-size: 16px;&quot;&gt;Road Scenario&lt;/font&gt;&lt;/b&gt;" style="rounded=0;whiteSpace=wrap;html=1;" parent="LpF5Ccz4zrVWc6uUfBFL-52" vertex="1">
          <mxGeometry x="448" y="32" width="120" height="60" as="geometry" />
        </mxCell>
        <mxCell id="LpF5Ccz4zrVWc6uUfBFL-25" value="&lt;p style=&quot;line-height: 0%;&quot;&gt;&lt;br&gt;&lt;/p&gt;" style="sketch=0;outlineConnect=0;fontColor=#FFFFFF;gradientColor=none;strokeColor=#232F3E;fillColor=#ffffff;dashed=0;verticalLabelPosition=bottom;verticalAlign=top;align=center;html=1;fontSize=12;fontStyle=0;aspect=fixed;shape=mxgraph.aws4.resourceIcon;resIcon=mxgraph.aws4.car;flipH=1;labelBorderColor=none;textShadow=0;labelBackgroundColor=#000000;shadow=1;" parent="LpF5Ccz4zrVWc6uUfBFL-52" vertex="1">
          <mxGeometry x="239" y="153" width="60" height="60" as="geometry" />
        </mxCell>
        <mxCell id="LpF5Ccz4zrVWc6uUfBFL-10" value="&lt;b&gt;&lt;font style=&quot;font-size: 16px;&quot;&gt;Drive Profile&lt;/font&gt;&lt;/b&gt;" style="rounded=0;whiteSpace=wrap;html=1;" parent="LpF5Ccz4zrVWc6uUfBFL-52" vertex="1">
          <mxGeometry x="467.62" y="72" width="120" height="60" as="geometry" />
        </mxCell>
        <mxCell id="LpF5Ccz4zrVWc6uUfBFL-31" value="&lt;b&gt;&lt;font color=&quot;#ffffff&quot; style=&quot;background-color: rgb(0, 0, 0); font-size: 17px;&quot;&gt;Controller Block&lt;/font&gt;&lt;/b&gt;" style="text;html=1;align=center;verticalAlign=middle;whiteSpace=wrap;rounded=0;" parent="LpF5Ccz4zrVWc6uUfBFL-52" vertex="1">
          <mxGeometry x="188" y="112" width="140" height="30" as="geometry" />
        </mxCell>
        <mxCell id="LpF5Ccz4zrVWc6uUfBFL-57" value="&lt;div style=&quot;forced-color-adjust: none; font-size: 16px;&quot;&gt;&lt;b style=&quot;font-size: 16px;&quot;&gt;&lt;font color=&quot;#ffffff&quot; style=&quot;background-color: rgb(0, 0, 0); font-size: 16px;&quot;&gt;Attack Block&lt;/font&gt;&lt;/b&gt;&lt;/div&gt;" style="text;whiteSpace=wrap;html=1;fontSize=16;" parent="LpF5Ccz4zrVWc6uUfBFL-52" vertex="1">
          <mxGeometry x="61.730000000000004" y="228" width="106.27" height="110" as="geometry" />
        </mxCell>
      </root>
    </mxGraphModel>
  </diagram>
</mxfile>
